<svg id="svg" version="1.1" xmlns="http://www.w3.org/2000/svg" xmlns:xlink="http://www.w3.org/1999/xlink" width="400" height="196.09804902451225" viewBox="0, 0, 400,196.09804902451225"><g id="svgg"><path id="path0" d="M142.053 15.252 C 142.089 30.769,142.139 31.424,143.256 31.076 C 143.494 31.002,143.605 31.079,143.615 31.326 C 143.624 31.531,143.673 31.578,143.730 31.437 C 143.791 31.286,144.009 31.238,144.303 31.311 C 144.563 31.377,144.777 31.348,144.777 31.248 C 144.777 31.005,146.212 31.025,146.381 31.271 C 146.467 31.395,146.689 31.384,147.006 31.240 C 147.380 31.069,147.520 31.072,147.593 31.251 C 147.664 31.427,147.692 31.424,147.704 31.241 C 147.722 30.952,148.308 30.904,148.308 31.192 C 148.308 31.300,148.440 31.388,148.602 31.388 C 148.764 31.388,148.897 31.274,148.897 31.136 C 148.897 30.997,149.073 30.883,149.289 30.883 C 149.591 30.883,149.653 30.973,149.557 31.274 C 149.443 31.635,149.457 31.640,149.753 31.344 C 149.930 31.168,150.093 30.819,150.118 30.568 C 150.142 30.318,150.210 32.364,150.270 35.115 C 150.339 38.293,150.394 34.911,150.422 25.846 L 150.466 11.574 199.902 11.574 L 249.338 11.574 249.385 29.573 C 249.411 39.473,249.456 43.877,249.485 39.360 C 249.538 31.272,249.544 31.149,249.929 31.249 C 250.143 31.305,250.319 31.293,250.319 31.222 C 250.319 31.053,254.611 31.100,255.232 31.277 C 255.622 31.387,255.657 31.370,255.419 31.186 C 255.114 30.950,255.297 30.983,256.106 31.311 C 256.268 31.376,256.400 31.326,256.400 31.200 C 256.400 31.070,256.551 31.016,256.744 31.076 C 257.754 31.390,257.759 31.323,257.798 16.184 L 257.831 3.237 199.928 3.188 L 142.025 3.138 142.053 15.252 M176.655 27.125 C 175.659 27.452,173.418 29.271,173.418 29.752 C 173.418 29.896,173.321 30.015,173.201 30.015 C 173.082 30.015,173.035 30.147,173.097 30.309 C 173.164 30.483,173.099 30.603,172.939 30.603 C 172.790 30.603,172.694 30.758,172.726 30.947 C 172.758 31.135,172.905 31.258,173.052 31.218 C 173.328 31.145,174.224 31.122,174.399 31.184 C 174.763 31.313,175.681 31.346,175.856 31.237 C 176.197 31.023,176.574 31.012,177.066 31.199 C 177.420 31.333,177.572 31.296,177.722 31.038 C 177.830 30.853,177.921 30.806,177.924 30.933 C 177.937 31.435,179.442 31.591,179.742 31.122 C 179.834 30.978,179.887 31.021,179.889 31.241 C 179.891 31.430,179.980 31.584,180.088 31.584 C 180.196 31.584,180.284 31.457,180.284 31.302 C 180.284 31.094,180.465 31.043,180.971 31.106 C 181.349 31.153,181.961 31.230,182.333 31.276 C 182.744 31.327,183.038 31.269,183.085 31.128 C 183.143 30.956,183.241 30.962,183.470 31.151 C 183.721 31.358,183.794 31.358,183.869 31.151 C 183.943 30.946,184.041 30.945,184.378 31.144 C 184.637 31.297,184.796 31.314,184.796 31.189 C 184.796 31.077,184.998 31.119,185.248 31.282 C 185.677 31.563,185.699 31.554,185.699 31.091 C 185.699 30.782,185.587 30.602,185.395 30.600 C 185.143 30.598,185.138 30.568,185.365 30.424 C 185.584 30.285,185.526 30.139,185.073 29.691 C 184.762 29.384,184.507 29.082,184.505 29.021 C 184.494 28.604,182.559 27.315,181.756 27.190 C 181.648 27.173,181.451 27.091,181.317 27.008 C 180.982 26.798,177.374 26.889,176.655 27.125 M375.172 186.062 C 374.805 186.336,374.807 186.342,375.236 186.234 C 375.480 186.173,375.728 186.045,375.787 185.950 C 375.953 185.681,375.594 185.747,375.172 186.062 M215.434 186.905 C 219.823 186.935,227.062 186.935,231.520 186.905 C 235.979 186.876,232.388 186.852,223.541 186.852 C 214.693 186.852,211.045 186.876,215.434 186.905 M113.977 187.110 C 113.977 187.214,114.103 187.403,114.256 187.530 C 114.480 187.716,114.525 187.693,114.484 187.417 C 114.431 187.058,113.977 186.783,113.977 187.110 M300.147 189.873 L 300.147 192.840 303.188 192.840 L 306.229 192.840 306.229 189.982 L 306.229 187.124 305.787 187.284 C 305.095 187.536,300.770 187.423,300.434 187.145 C 300.184 186.937,300.147 187.290,300.147 189.873 M38.275 187.341 C 37.585 187.400,32.971 187.441,28.020 187.432 C 20.694 187.418,18.979 187.464,18.801 187.680 C 18.628 187.887,18.650 187.918,18.903 187.821 C 19.137 187.731,19.225 187.807,19.225 188.099 C 19.225 188.600,19.612 188.874,19.633 188.388 C 19.645 188.120,19.673 188.106,19.747 188.328 C 20.044 189.220,20.047 189.223,20.213 188.818 C 20.360 188.460,20.376 188.469,20.391 188.916 C 20.405 189.307,20.447 189.347,20.598 189.112 C 20.737 188.898,20.789 188.888,20.792 189.075 C 20.793 189.216,20.886 189.275,20.997 189.206 C 21.109 189.138,21.511 189.265,21.891 189.489 C 22.271 189.713,22.754 189.897,22.964 189.897 C 23.183 189.897,23.345 190.031,23.345 190.212 C 23.345 190.406,23.454 190.486,23.626 190.419 C 23.781 190.360,23.938 190.402,23.975 190.513 C 24.091 190.862,26.951 191.424,28.662 191.436 C 29.625 191.442,30.331 191.532,30.371 191.653 C 30.416 191.787,31.705 191.859,34.064 191.859 C 36.431 191.859,37.647 191.791,37.567 191.663 C 37.494 191.544,37.781 191.461,38.292 191.453 C 41.174 191.409,43.812 190.946,44.237 190.410 C 44.513 190.062,46.695 189.092,46.907 189.223 C 47.003 189.283,47.082 189.233,47.082 189.112 C 47.082 188.992,47.170 188.948,47.278 189.014 C 47.386 189.081,47.474 188.987,47.474 188.806 C 47.474 188.535,47.527 188.519,47.769 188.720 C 48.016 188.925,48.063 188.890,48.066 188.499 C 48.068 188.156,48.114 188.105,48.241 188.304 C 48.375 188.516,48.442 188.481,48.549 188.143 C 48.633 187.879,48.794 187.752,48.963 187.817 C 49.115 187.875,49.240 187.815,49.240 187.683 C 49.240 187.501,48.146 187.446,44.679 187.454 C 42.170 187.460,39.985 187.413,39.823 187.350 C 39.662 187.287,38.965 187.283,38.275 187.341 M85.667 187.277 C 85.595 187.350,82.173 187.406,78.064 187.402 L 70.593 187.396 70.720 187.911 C 70.790 188.194,70.934 188.514,71.041 188.622 C 71.169 188.752,71.190 188.702,71.104 188.475 C 71.028 188.276,71.065 188.131,71.190 188.131 C 71.310 188.131,71.408 188.305,71.408 188.518 C 71.408 188.780,71.502 188.868,71.702 188.791 C 71.898 188.716,71.997 188.800,71.999 189.042 C 72.001 189.281,72.053 189.326,72.150 189.174 C 72.257 189.006,72.635 189.104,73.524 189.530 C 74.266 189.886,74.697 190.204,74.617 190.333 C 74.531 190.473,74.631 190.509,74.908 190.437 C 75.141 190.376,75.288 190.397,75.234 190.483 C 75.181 190.570,75.269 190.691,75.430 190.753 C 75.591 190.815,75.723 190.774,75.723 190.662 C 75.723 190.549,75.870 190.604,76.049 190.783 C 76.236 190.970,76.566 191.071,76.827 191.021 C 77.077 190.974,77.240 191.000,77.191 191.080 C 77.142 191.160,77.277 191.272,77.491 191.328 C 77.714 191.386,77.883 191.332,77.884 191.203 C 77.886 191.051,77.940 191.060,78.047 191.228 C 78.135 191.367,78.553 191.528,78.976 191.587 C 79.399 191.646,79.943 191.790,80.186 191.907 C 80.429 192.025,80.686 192.062,80.758 191.990 C 80.830 191.918,80.742 191.859,80.562 191.859 C 80.383 191.859,80.235 191.761,80.235 191.642 C 80.235 191.522,80.375 191.478,80.546 191.544 C 80.716 191.609,81.180 191.674,81.576 191.688 L 82.295 191.714 81.609 191.859 C 81.231 191.938,85.623 192.015,91.368 192.029 L 101.815 192.055 101.815 189.799 C 101.815 187.217,102.102 187.503,99.461 187.458 C 98.651 187.444,97.885 187.368,97.758 187.288 C 97.630 187.209,97.474 187.229,97.410 187.332 C 97.344 187.439,96.767 187.473,96.072 187.411 C 95.400 187.351,94.630 187.325,94.360 187.352 C 94.090 187.380,92.923 187.402,91.766 187.402 C 90.274 187.401,89.700 187.464,89.793 187.619 C 89.864 187.739,89.780 187.721,89.605 187.579 C 89.369 187.388,88.869 187.354,87.675 187.446 C 86.599 187.529,86.019 187.500,85.931 187.358 C 85.859 187.241,85.740 187.204,85.667 187.277 M128.733 187.320 C 128.601 187.402,127.467 187.448,126.214 187.422 C 124.962 187.395,123.727 187.454,123.469 187.552 C 123.212 187.649,123.001 187.665,123.001 187.587 C 123.001 187.509,121.236 187.442,119.078 187.439 C 115.521 187.434,114.607 187.541,115.449 187.864 C 115.611 187.926,115.743 188.150,115.743 188.360 C 115.743 188.571,115.821 188.695,115.917 188.636 C 116.140 188.498,117.312 188.903,117.312 189.118 C 117.312 189.275,117.892 189.534,118.097 189.469 C 118.363 189.386,119.078 189.952,119.081 190.247 C 119.084 190.535,119.111 190.541,119.269 190.290 C 119.428 190.039,119.497 190.053,119.751 190.388 C 119.973 190.683,120.049 190.707,120.056 190.486 C 120.064 190.228,120.088 190.227,120.247 190.480 C 120.348 190.639,120.489 190.709,120.562 190.636 C 120.635 190.564,120.810 190.620,120.951 190.761 C 121.307 191.117,123.210 191.442,124.960 191.444 C 125.811 191.445,126.457 191.532,126.496 191.652 C 126.543 191.793,129.684 191.859,136.379 191.859 C 145.247 191.859,146.181 191.829,146.073 191.548 C 146.007 191.378,145.954 190.313,145.954 189.183 C 145.954 187.635,145.896 187.163,145.719 187.273 C 145.409 187.464,129.212 187.508,129.078 187.318 C 129.021 187.237,128.866 187.238,128.733 187.320 M201.198 187.462 C 200.917 188.193,201.058 189.357,201.387 189.028 C 201.557 188.859,201.777 188.720,201.878 188.720 C 202.146 188.720,202.099 189.064,201.815 189.179 C 201.638 189.250,201.635 189.282,201.803 189.293 C 202.095 189.312,202.337 188.934,202.347 188.443 C 202.351 188.237,202.479 188.026,202.631 187.975 C 202.825 187.909,202.869 187.982,202.778 188.219 C 202.700 188.421,202.733 188.528,202.859 188.486 C 202.975 188.448,203.064 188.352,203.055 188.274 C 203.047 188.195,203.041 187.958,203.041 187.745 C 203.041 187.433,202.915 187.363,202.385 187.383 C 202.024 187.397,201.636 187.351,201.523 187.280 C 201.409 187.210,201.263 187.292,201.198 187.462 M249.164 187.333 C 249.020 187.422,248.486 187.467,247.978 187.434 C 247.133 187.379,247.023 187.424,246.711 187.952 C 246.521 188.274,246.274 188.472,246.156 188.399 C 246.029 188.320,245.999 188.358,246.081 188.492 C 246.158 188.616,246.121 188.872,245.999 189.062 C 245.789 189.388,245.783 189.388,245.884 189.063 C 246.050 188.529,245.849 188.659,245.518 189.299 C 245.162 189.986,245.141 190.164,245.435 189.982 C 245.709 189.813,245.479 190.611,245.094 191.167 C 244.780 191.621,244.735 191.414,245.029 190.865 C 245.145 190.647,245.155 190.486,245.050 190.486 C 244.825 190.486,244.576 191.416,244.732 191.670 C 244.796 191.772,244.747 192.011,244.626 192.201 C 244.416 192.526,244.410 192.526,244.515 192.192 C 244.579 191.986,244.544 191.888,244.431 191.958 C 244.325 192.024,244.237 192.291,244.237 192.551 L 244.237 193.024 248.007 193.013 L 251.776 193.001 252.138 192.406 C 252.337 192.079,252.446 191.670,252.380 191.497 C 252.314 191.325,252.322 191.246,252.398 191.322 C 252.474 191.398,252.658 191.226,252.807 190.939 C 252.990 190.586,253.010 190.377,252.871 190.290 C 252.735 190.207,252.834 189.711,253.159 188.848 C 253.431 188.125,253.654 187.496,253.654 187.449 C 253.654 187.402,252.749 187.396,251.643 187.435 C 250.537 187.474,249.586 187.431,249.529 187.339 C 249.472 187.247,249.308 187.244,249.164 187.333 M333.791 187.303 C 333.131 187.441,333.026 187.687,333.390 188.244 C 333.674 188.677,333.688 188.801,333.468 188.949 C 333.270 189.083,333.300 189.114,333.588 189.071 C 333.841 189.034,334.000 189.147,334.052 189.400 C 334.123 189.751,334.097 189.760,333.765 189.498 C 333.441 189.244,333.424 189.244,333.617 189.505 C 335.210 191.648,335.768 192.360,335.896 192.415 C 335.981 192.451,336.000 192.562,335.939 192.660 C 335.873 192.766,337.202 192.840,339.174 192.840 C 342.252 192.840,342.941 192.730,342.311 192.341 C 342.196 192.270,342.146 192.097,342.200 191.956 C 342.255 191.813,342.123 191.656,341.899 191.597 C 341.680 191.540,341.553 191.408,341.617 191.304 C 341.681 191.200,341.602 191.065,341.441 191.003 C 341.280 190.941,341.148 190.794,341.148 190.676 C 341.148 190.559,341.258 190.526,341.393 190.603 C 341.535 190.685,341.570 190.670,341.475 190.566 C 341.385 190.468,341.252 190.386,341.180 190.384 C 340.928 190.379,340.559 190.068,340.559 189.861 C 340.559 189.738,340.693 189.763,340.886 189.922 C 341.089 190.089,341.033 189.913,340.739 189.457 C 340.478 189.053,340.162 188.760,340.037 188.806 C 339.912 188.852,339.569 188.542,339.274 188.117 C 338.852 187.508,338.682 187.391,338.472 187.566 C 338.319 187.692,338.205 187.705,338.205 187.596 C 338.205 187.483,337.461 187.419,336.390 187.439 C 335.392 187.458,334.487 187.416,334.380 187.347 C 334.272 187.278,334.007 187.258,333.791 187.303 M341.560 187.827 C 341.787 188.212,341.919 188.669,341.852 188.842 C 341.764 189.071,341.816 189.124,342.044 189.036 C 342.216 188.970,342.394 188.916,342.439 188.916 C 342.615 188.916,342.509 187.363,342.325 187.249 C 342.217 187.182,342.128 187.213,342.128 187.318 C 342.128 187.531,341.764 187.513,341.393 187.280 C 341.257 187.196,341.333 187.442,341.560 187.827 M346.052 189.997 L 346.052 192.857 359.441 192.787 C 371.427 192.724,372.984 192.680,374.301 192.369 C 376.820 191.772,379.381 190.880,379.586 190.527 C 379.744 190.257,379.784 190.249,379.794 190.486 C 379.804 190.721,379.860 190.709,380.075 190.426 C 380.275 190.161,380.369 190.137,380.445 190.328 C 380.510 190.489,380.553 190.452,380.563 190.229 C 380.572 190.034,380.667 189.928,380.775 189.995 C 380.883 190.062,380.971 190.013,380.971 189.888 C 380.971 189.762,381.101 189.709,381.260 189.770 C 381.427 189.834,381.675 189.700,381.848 189.453 C 382.056 189.156,382.152 189.114,382.161 189.314 C 382.169 189.487,382.260 189.425,382.388 189.161 C 382.505 188.919,382.763 188.720,382.963 188.720 C 383.194 188.720,383.325 188.578,383.325 188.328 C 383.325 188.112,383.413 187.935,383.521 187.935 C 383.629 187.935,383.719 188.046,383.721 188.180 C 383.723 188.347,383.782 188.333,383.905 188.138 C 384.222 187.638,383.767 187.372,382.676 187.421 C 382.116 187.446,381.327 187.407,380.922 187.335 C 380.517 187.262,380.186 187.260,380.186 187.328 C 380.186 187.397,379.326 187.424,378.274 187.388 C 377.222 187.352,376.229 187.334,376.067 187.347 C 375.905 187.361,374.890 187.399,373.811 187.433 C 372.732 187.466,371.396 187.557,370.841 187.634 C 370.182 187.726,369.788 187.700,369.702 187.560 C 369.629 187.443,369.244 187.358,368.846 187.373 L 368.122 187.398 368.808 187.525 C 370.277 187.795,368.524 187.877,360.816 187.901 C 354.253 187.922,352.890 187.879,352.658 187.648 C 352.439 187.428,351.788 187.381,349.559 187.424 C 348.008 187.454,346.584 187.401,346.395 187.307 C 346.076 187.149,346.052 187.339,346.052 189.997 M157.401 187.493 C 156.803 187.595,156.697 188.230,157.206 188.660 C 157.622 189.011,157.623 189.010,157.283 188.606 C 157.094 188.381,156.994 188.142,157.062 188.075 C 157.182 187.954,158.544 188.873,158.673 189.161 C 158.709 189.242,158.825 189.308,158.932 189.308 C 159.146 189.308,159.686 189.798,159.686 189.993 C 159.686 190.061,159.584 190.053,159.460 189.976 C 159.316 189.888,159.287 189.923,159.379 190.072 C 159.488 190.249,159.592 190.253,159.793 190.086 C 160.092 189.837,160.471 189.988,160.471 190.356 C 160.471 190.611,160.931 190.826,163.100 191.587 C 163.845 191.849,164.639 192.011,164.866 191.948 C 165.158 191.866,165.200 191.886,165.012 192.017 C 164.722 192.218,164.596 192.184,167.631 192.718 C 172.384 193.555,183.994 192.801,185.091 191.586 C 185.199 191.466,185.470 191.350,185.693 191.328 C 186.351 191.262,187.151 190.904,187.151 190.675 C 187.151 190.558,187.231 190.512,187.329 190.573 C 187.578 190.726,188.152 190.481,188.025 190.276 C 187.871 190.026,189.494 189.064,189.894 189.168 C 190.115 189.226,190.229 189.152,190.214 188.961 C 190.202 188.798,190.302 188.625,190.437 188.578 C 190.603 188.519,190.638 188.605,190.546 188.844 C 190.427 189.155,190.447 189.163,190.713 188.916 C 190.879 188.760,190.976 188.486,190.929 188.307 C 190.882 188.127,190.940 187.920,191.057 187.848 C 191.507 187.570,191.234 187.412,190.338 187.432 C 189.826 187.443,189.296 187.522,189.161 187.607 C 189.026 187.693,188.916 187.679,188.916 187.578 C 188.916 187.465,186.770 187.435,183.374 187.499 C 176.715 187.626,172.641 187.628,164.198 187.511 C 160.692 187.462,157.633 187.454,157.401 187.493 M206.963 187.543 C 206.959 187.773,206.002 188.072,205.827 187.897 C 205.620 187.689,204.120 188.956,204.120 189.339 C 204.120 189.466,203.997 189.611,203.847 189.661 C 203.665 189.722,203.622 189.662,203.720 189.481 C 203.799 189.332,203.555 189.564,203.177 189.995 C 202.798 190.427,202.424 190.716,202.345 190.638 C 202.079 190.376,201.079 191.273,201.079 191.774 L 201.079 192.251 220.795 192.251 L 240.510 192.251 240.490 189.750 C 240.478 188.193,240.412 187.434,240.314 187.739 C 240.209 188.066,240.150 188.115,240.137 187.886 C 240.125 187.669,239.956 187.541,239.676 187.538 C 233.932 187.468,206.964 187.473,206.963 187.543 M287.008 187.804 C 286.759 188.204,287.191 189.100,287.646 189.126 C 287.778 189.134,287.710 189.216,287.494 189.308 C 287.278 189.401,287.217 189.483,287.358 189.491 C 287.500 189.498,287.560 189.594,287.493 189.702 C 287.426 189.811,287.516 189.956,287.694 190.024 C 287.915 190.108,287.946 190.192,287.793 190.286 C 287.648 190.376,287.760 190.551,288.112 190.781 C 288.621 191.115,288.632 191.147,288.271 191.288 C 287.892 191.437,287.892 191.439,288.279 191.456 C 288.605 191.470,288.621 191.504,288.377 191.663 C 288.121 191.828,288.124 191.853,288.403 191.856 C 288.579 191.857,288.771 192.040,288.829 192.262 C 288.916 192.596,288.885 192.625,288.651 192.431 C 288.422 192.241,288.390 192.253,288.483 192.496 C 288.654 192.942,289.458 193.036,293.109 193.036 C 296.489 193.036,296.844 192.950,296.184 192.290 C 296.055 192.161,296.013 192.055,296.091 192.055 C 296.170 192.055,296.103 191.801,295.942 191.491 C 295.782 191.181,295.713 190.858,295.790 190.773 C 295.867 190.688,295.828 190.677,295.705 190.747 C 295.456 190.889,295.177 190.358,295.352 190.075 C 295.412 189.977,295.332 189.897,295.172 189.897 C 295.013 189.897,294.738 189.522,294.561 189.063 C 293.906 187.371,293.961 187.392,290.392 187.420 C 287.557 187.442,287.210 187.482,287.008 187.804 M28.592 191.801 C 28.835 191.848,29.232 191.848,29.475 191.801 C 29.718 191.754,29.519 191.716,29.034 191.716 C 28.548 191.716,28.350 191.754,28.592 191.801 " stroke="none" fill="#77e6fb" fill-rule="evenodd"></path><path id="path1" d="M150.311 88.475 C 150.268 92.680,150.202 93.746,149.969 94.054 C 149.775 94.311,149.681 94.346,149.681 94.162 C 149.681 93.954,149.627 93.944,149.453 94.118 C 149.279 94.292,149.165 94.266,148.975 94.010 C 148.793 93.763,148.668 93.731,148.506 93.891 C 148.367 94.028,147.979 94.059,147.463 93.973 C 146.391 93.797,143.369 93.845,143.048 94.043 C 142.910 94.128,142.683 94.102,142.542 93.985 C 142.136 93.648,142.030 96.717,142.030 108.907 L 142.030 119.863 199.902 119.863 L 257.773 119.863 257.773 108.907 C 257.773 93.484,257.734 93.090,256.267 94.023 C 256.139 94.104,255.980 94.080,255.912 93.971 C 255.737 93.689,254.372 93.723,254.061 94.017 C 253.853 94.213,253.783 94.213,253.711 94.017 C 253.572 93.637,252.870 93.718,252.866 94.115 C 252.863 94.409,252.835 94.416,252.670 94.164 C 252.500 93.905,252.454 93.905,252.291 94.158 C 252.131 94.408,252.089 94.403,251.982 94.124 C 251.857 93.800,249.887 93.745,249.576 94.057 C 249.507 94.126,249.414 98.018,249.370 102.706 L 249.290 111.231 199.879 111.231 L 150.469 111.231 150.417 97.254 C 150.388 89.566,150.341 85.615,150.311 88.475 M179.612 93.884 C 179.442 94.053,179.304 94.097,179.304 93.982 C 179.304 93.866,179.206 93.771,179.086 93.771 C 178.965 93.771,178.922 93.923,178.989 94.115 C 179.086 94.394,179.049 94.385,178.791 94.066 C 178.602 93.832,178.440 93.761,178.391 93.892 C 178.343 94.018,178.041 94.072,177.678 94.020 C 177.004 93.923,175.011 93.922,174.203 94.019 C 173.933 94.051,173.658 93.999,173.590 93.904 C 173.523 93.808,173.271 93.836,173.026 93.968 C 172.672 94.157,172.547 94.152,172.400 93.939 C 172.059 93.448,172.464 94.623,172.883 95.341 C 173.345 96.133,174.591 97.499,174.852 97.499 C 174.949 97.499,175.291 97.719,175.612 97.989 C 175.933 98.259,176.359 98.480,176.561 98.480 C 176.762 98.480,176.981 98.568,177.048 98.676 C 177.357 99.176,182.442 98.766,182.442 98.241 C 182.442 98.144,182.515 98.109,182.603 98.163 C 182.691 98.218,182.887 98.091,183.038 97.881 C 183.190 97.671,183.387 97.499,183.476 97.499 C 183.565 97.499,183.833 97.296,184.070 97.048 C 184.390 96.713,184.426 96.701,184.209 96.999 C 183.973 97.323,184.019 97.310,184.449 96.931 C 184.741 96.672,184.934 96.385,184.877 96.293 C 184.820 96.201,184.865 96.126,184.976 96.126 C 185.391 96.126,186.265 94.050,185.936 93.846 C 185.815 93.772,185.767 93.793,185.829 93.893 C 185.963 94.109,184.404 94.112,184.055 93.896 C 183.923 93.815,183.816 93.820,183.816 93.907 C 183.816 93.994,183.198 94.057,182.442 94.046 C 181.344 94.029,181.069 94.084,181.069 94.319 C 181.069 94.519,180.915 94.448,180.588 94.094 C 180.024 93.485,180.012 93.483,179.612 93.884 M134.282 139.879 L 122.511 139.984 120.670 140.531 C 118.565 141.157,115.925 142.463,114.593 143.538 C 112.919 144.890,111.231 146.765,111.231 147.272 L 111.231 147.747 128.543 147.611 C 138.065 147.537,145.924 147.414,146.007 147.338 C 146.091 147.263,146.135 145.530,146.105 143.488 L 146.052 139.774 134.282 139.879 M25.110 140.373 C 19.192 141.901,14.938 145.642,12.641 151.338 C 11.706 153.656,10.920 156.661,11.063 157.372 C 11.142 157.770,11.109 157.898,10.952 157.802 C 10.792 157.702,10.764 157.880,10.855 158.430 C 10.925 158.851,10.982 159.372,10.984 159.588 C 10.986 159.962,11.109 159.979,13.697 159.957 C 16.541 159.932,17.349 159.745,17.125 159.161 C 17.047 158.958,17.079 158.885,17.209 158.966 C 17.407 159.088,18.179 156.578,18.118 156.010 C 18.104 155.876,18.160 155.808,18.242 155.859 C 18.324 155.910,18.661 155.348,18.990 154.611 C 20.377 151.511,23.904 148.901,27.955 147.979 C 32.276 146.995,40.062 147.611,43.284 149.191 C 44.054 149.568,44.818 149.877,44.982 149.877 C 45.283 149.877,46.872 148.232,47.446 147.327 C 47.616 147.057,48.222 146.314,48.792 145.675 C 49.362 145.036,49.828 144.398,49.828 144.256 C 49.828 143.226,46.060 141.232,42.293 140.269 C 39.737 139.616,27.763 139.688,25.110 140.373 M79.156 140.083 C 74.466 140.872,69.400 143.636,67.427 146.483 C 66.304 148.104,65.490 147.997,77.816 147.850 C 83.822 147.778,91.678 147.719,95.275 147.719 L 101.815 147.719 101.815 143.796 L 101.815 139.872 90.976 139.895 C 85.015 139.908,79.696 139.993,79.156 140.083 M151.447 149.877 L 151.447 159.882 151.888 159.899 C 155.918 160.054,157.640 159.972,157.970 159.610 C 158.287 159.262,158.313 158.499,158.313 149.553 L 158.313 139.872 154.880 139.872 L 151.447 139.872 151.447 149.877 M189.881 139.954 C 189.836 139.999,189.823 144.082,189.853 149.027 C 189.888 154.851,189.974 157.915,190.095 157.724 C 190.226 157.520,190.284 157.819,190.286 158.709 L 190.289 159.987 193.183 159.965 C 194.774 159.952,196.231 160.020,196.420 160.115 C 196.745 160.279,196.763 159.738,196.763 150.080 L 196.763 139.872 193.363 139.872 C 191.493 139.872,189.926 139.909,189.881 139.954 M201.079 150.098 C 201.079 158.243,201.129 160.286,201.324 160.143 C 201.459 160.044,202.805 159.967,204.316 159.972 C 206.166 159.978,207.142 159.905,207.308 159.749 C 207.497 159.570,207.553 157.299,207.553 149.695 L 207.553 139.872 204.316 139.872 L 201.079 139.872 201.079 150.098 M346.064 140.598 C 346.077 140.964,346.812 141.559,349.473 143.359 C 350.330 143.938,351.343 144.715,351.724 145.085 L 352.416 145.758 360.269 145.759 C 364.588 145.760,368.850 145.848,369.740 145.955 C 370.630 146.062,372.048 146.233,372.890 146.333 C 374.278 146.499,375.415 146.830,375.674 147.143 C 375.728 147.208,376.302 147.543,376.949 147.887 C 377.597 148.230,378.499 148.857,378.955 149.280 C 379.411 149.702,379.903 150.120,380.050 150.208 C 380.876 150.704,382.716 155.310,382.750 156.968 C 382.761 157.492,382.795 157.547,382.917 157.236 C 383.023 156.964,383.111 157.276,383.209 158.261 C 383.380 160.005,383.199 159.907,386.360 159.966 C 389.454 160.025,389.181 160.311,389.254 156.940 C 389.282 155.699,389.352 160.025,389.411 166.552 L 389.517 178.421 389.508 166.062 C 389.499 153.536,389.496 153.482,388.807 151.937 C 388.711 151.721,388.447 151.037,388.220 150.417 C 387.994 149.796,387.702 149.178,387.570 149.044 C 387.439 148.909,387.117 148.445,386.855 148.014 C 384.776 144.592,380.731 142.262,374.378 140.827 C 371.604 140.200,346.043 139.993,346.064 140.598 M266.215 141.981 C 264.300 146.365,263.511 148.258,263.417 148.700 C 263.360 148.970,262.762 150.427,262.089 151.937 C 260.447 155.621,260.110 156.414,260.087 156.645 C 260.077 156.753,259.927 156.945,259.755 157.071 C 259.583 157.197,259.506 157.365,259.585 157.444 C 259.664 157.523,259.607 157.685,259.459 157.803 C 259.120 158.073,258.326 159.882,258.546 159.882 C 258.636 159.882,258.774 159.684,258.854 159.441 L 259.000 159.000 259.085 159.421 C 259.189 159.942,259.860 160.075,261.893 159.976 C 262.702 159.937,263.877 159.900,264.504 159.893 C 265.205 159.887,265.597 159.807,265.523 159.688 C 265.457 159.581,265.627 159.270,265.900 158.997 C 266.173 158.724,266.397 158.458,266.399 158.406 C 266.401 158.354,266.673 157.716,267.004 156.988 C 267.336 156.260,268.097 154.429,268.696 152.918 C 269.295 151.408,269.844 150.128,269.916 150.074 C 270.080 149.950,271.607 146.614,271.801 145.954 C 271.881 145.684,272.013 145.375,272.096 145.267 C 272.368 144.910,273.664 141.270,273.664 140.862 C 273.664 140.474,273.557 140.461,270.272 140.461 L 266.880 140.461 266.215 141.981 M300.147 140.833 C 300.147 141.037,300.677 141.981,301.324 142.929 C 301.972 143.878,302.501 144.750,302.501 144.867 C 302.501 144.984,302.758 145.391,303.072 145.772 C 303.386 146.153,303.883 146.901,304.176 147.435 C 305.366 149.600,309.083 154.910,310.196 156.035 C 310.718 156.562,311.098 157.040,311.042 157.096 C 310.985 157.153,311.117 157.323,311.334 157.475 C 311.551 157.627,311.680 157.829,311.621 157.924 C 311.562 158.019,311.696 158.194,311.918 158.313 C 312.139 158.432,312.269 158.613,312.206 158.715 C 312.142 158.818,312.231 158.901,312.403 158.901 C 312.574 158.901,312.767 159.037,312.830 159.203 C 313.067 159.821,313.921 159.997,316.626 159.989 L 319.274 159.980 319.208 159.318 C 319.131 158.555,318.172 157.066,313.910 151.087 C 313.192 150.080,312.271 148.722,311.865 148.069 C 311.458 147.416,310.699 146.342,310.179 145.682 C 309.659 145.023,308.883 143.953,308.455 143.306 C 308.027 142.658,307.417 141.757,307.100 141.302 L 306.523 140.476 303.335 140.468 C 300.334 140.461,300.147 140.483,300.147 140.833 M336.273 150.221 C 336.289 155.589,336.339 159.736,336.384 159.438 C 336.474 158.841,336.832 158.892,336.832 159.502 C 336.832 159.930,336.706 159.912,339.922 159.953 C 341.283 159.971,342.130 159.906,342.131 159.785 C 342.133 159.677,342.220 159.720,342.325 159.882 C 342.449 160.074,342.516 156.756,342.518 150.319 L 342.521 140.461 339.382 140.461 L 336.243 140.461 336.273 150.221 M346.067 150.417 C 346.082 158.564,346.153 159.733,346.641 159.862 C 347.184 160.004,349.227 159.982,349.319 159.833 C 349.370 159.752,349.560 159.760,349.742 159.851 C 350.012 159.986,351.108 160.007,352.231 159.898 C 352.809 159.842,352.918 158.762,352.918 153.108 L 352.918 147.392 351.103 146.051 C 350.105 145.314,348.698 144.240,347.975 143.665 C 345.893 142.007,346.050 141.453,346.067 150.417 M273.964 143.517 C 273.803 143.903,273.457 144.808,273.196 145.528 C 272.935 146.248,272.373 147.638,271.946 148.618 C 271.030 150.725,271.035 150.888,272.096 153.142 C 272.546 154.098,272.891 154.880,272.863 154.880 C 272.835 154.880,272.934 155.101,273.082 155.370 C 273.341 155.842,273.371 155.939,273.438 156.510 C 273.454 156.651,273.569 156.704,273.694 156.627 C 273.821 156.548,273.868 156.572,273.800 156.681 C 273.624 156.967,273.966 158.026,274.218 157.972 C 274.338 157.946,274.383 158.059,274.319 158.225 C 274.196 158.545,274.812 160.368,274.985 160.195 C 275.042 160.139,274.937 159.773,274.751 159.383 C 274.303 158.438,274.519 158.274,275.043 159.162 C 275.557 160.033,275.575 160.038,278.568 159.978 C 282.013 159.910,281.730 159.969,281.500 159.365 C 281.392 159.080,281.362 158.793,281.434 158.727 C 281.506 158.661,281.604 158.718,281.652 158.852 C 281.700 158.987,281.823 159.098,281.926 159.098 C 282.038 159.098,282.030 158.943,281.907 158.713 C 281.793 158.501,281.581 158.373,281.435 158.430 C 281.289 158.486,281.108 158.374,281.034 158.181 C 280.960 157.988,280.993 157.799,281.107 157.761 C 281.221 157.723,281.307 157.545,281.299 157.365 C 281.289 157.161,281.246 157.130,281.184 157.283 C 281.010 157.714,280.791 157.546,280.791 156.982 C 280.791 156.681,280.477 155.776,280.094 154.971 C 279.710 154.166,279.113 152.845,278.767 152.035 C 277.691 149.521,277.062 148.091,276.049 145.856 C 275.511 144.669,275.013 143.499,274.942 143.256 C 274.752 142.600,274.296 142.722,273.964 143.517 M300.147 151.972 L 300.147 159.980 303.188 159.988 L 306.229 159.995 306.229 156.411 L 306.229 152.827 305.448 151.552 C 305.019 150.851,304.236 149.635,303.708 148.851 C 303.179 148.067,302.313 146.675,301.782 145.759 C 300.111 142.876,300.147 142.740,300.147 151.972 M48.553 147.822 C 45.991 150.743,46.007 150.688,47.227 152.269 C 48.341 153.713,48.926 154.604,48.942 154.880 C 48.966 155.289,49.273 155.959,49.437 155.959 C 49.531 155.959,49.608 156.113,49.609 156.302 C 49.612 156.863,50.522 159.320,50.671 159.170 C 50.747 159.094,50.809 159.173,50.809 159.346 C 50.809 159.809,51.424 159.930,53.735 159.923 C 56.798 159.914,56.634 159.945,56.806 159.343 L 56.960 158.803 57.095 159.490 C 57.196 159.997,57.238 160.052,57.257 159.702 C 57.299 158.935,56.865 156.736,56.693 156.843 C 56.606 156.896,56.579 156.772,56.633 156.566 C 56.959 155.320,54.530 149.207,52.806 146.935 C 51.198 144.815,51.188 144.817,48.553 147.822 M109.674 149.415 C 108.947 150.251,108.125 152.304,107.821 154.043 C 107.769 154.338,107.683 154.651,107.629 154.738 C 107.574 154.826,107.476 155.379,107.409 155.968 C 107.244 157.425,107.088 158.385,106.993 158.541 C 106.949 158.613,107.024 158.717,107.159 158.772 C 107.335 158.843,107.343 158.918,107.190 159.034 C 106.735 159.374,106.736 160.258,107.191 160.089 C 107.417 160.005,108.816 159.961,110.299 159.992 C 112.527 160.038,112.997 160.000,112.997 159.769 C 112.997 159.616,113.138 159.490,113.312 159.490 C 113.508 159.490,113.585 159.382,113.517 159.202 C 113.456 159.044,113.488 158.863,113.588 158.801 C 113.689 158.739,113.942 158.141,114.150 157.471 C 115.227 154.020,117.539 150.620,119.323 149.863 C 119.639 149.728,119.863 149.481,119.863 149.265 C 119.863 148.914,119.627 148.897,114.994 148.897 L 110.125 148.897 109.674 149.415 M64.878 150.622 C 63.761 153.064,62.384 158.765,62.854 158.993 C 63.003 159.065,62.994 159.133,62.825 159.212 C 62.690 159.275,62.592 159.562,62.606 159.850 C 62.630 160.316,62.642 160.325,62.719 159.928 C 62.765 159.684,62.887 159.536,62.989 159.599 C 63.091 159.662,63.137 159.774,63.091 159.848 C 62.946 160.084,68.661 159.961,68.898 159.724 C 69.018 159.604,69.147 159.224,69.184 158.878 C 69.222 158.533,69.339 158.147,69.444 158.021 C 69.625 157.802,69.792 157.162,69.824 156.564 C 69.832 156.411,69.897 156.345,69.969 156.416 C 70.041 156.488,70.442 155.845,70.861 154.988 C 71.670 153.332,73.781 150.850,75.047 150.067 C 76.498 149.171,76.147 149.093,70.650 149.093 L 65.577 149.093 64.878 150.622 M382.797 158.803 C 382.799 159.451,382.835 159.692,382.879 159.339 C 382.922 158.987,382.922 158.457,382.877 158.162 C 382.832 157.867,382.796 158.156,382.797 158.803 M281.903 159.335 C 281.903 159.593,282.504 160.847,282.679 160.956 C 282.785 161.021,282.711 160.717,282.516 160.280 C 282.178 159.526,281.903 159.102,281.903 159.335 M10.523 159.924 C 10.457 160.171,10.420 162.845,10.442 165.866 L 10.481 171.359 10.586 165.473 C 10.644 162.236,10.681 159.562,10.667 159.531 C 10.654 159.500,10.589 159.677,10.523 159.924 M319.769 159.588 C 319.771 159.696,320.088 160.137,320.475 160.569 C 320.861 161.000,321.082 161.177,320.964 160.961 C 320.644 160.372,319.766 159.364,319.769 159.588 M16.993 160.184 C 16.926 160.359,16.879 160.650,16.888 160.830 C 16.897 161.010,16.983 160.897,17.078 160.579 C 17.262 159.960,17.197 159.653,16.993 160.184 M246.161 193.182 C 247.272 193.217,249.038 193.217,250.084 193.182 C 251.130 193.147,250.221 193.118,248.063 193.118 C 245.905 193.118,245.049 193.147,246.161 193.182 M290.692 193.182 C 291.804 193.217,293.569 193.217,294.616 193.182 C 295.662 193.147,294.752 193.118,292.594 193.118 C 290.436 193.118,289.580 193.147,290.692 193.182 " stroke="none" fill="#c37ef8" fill-rule="evenodd"></path><path id="path2" d="M141.914 51.202 C 141.917 63.987,141.969 72.859,142.032 70.917 C 142.102 68.709,142.205 67.551,142.307 67.827 C 142.483 68.308,142.911 68.415,143.093 68.024 C 143.185 67.827,143.230 67.827,143.322 68.024 C 143.458 68.315,143.992 68.354,143.992 68.073 C 143.992 67.965,144.080 67.876,144.188 67.876 C 144.296 67.876,144.385 67.991,144.385 68.131 C 144.385 68.436,145.781 68.335,145.985 68.015 C 146.068 67.886,146.228 67.926,146.427 68.125 C 146.671 68.369,146.878 68.398,147.375 68.255 C 148.162 68.029,148.162 68.029,148.014 68.269 C 147.821 68.580,148.641 68.496,148.967 68.171 C 149.382 67.755,149.529 67.805,149.402 68.318 C 149.342 68.561,149.343 68.648,149.406 68.513 C 149.468 68.377,149.598 68.316,149.696 68.376 C 149.793 68.436,149.819 68.326,149.753 68.132 C 149.659 67.856,149.702 67.870,149.945 68.195 C 150.184 68.514,150.272 69.205,150.319 71.138 C 150.353 72.527,150.381 66.425,150.381 57.577 C 150.381 48.730,150.334 43.124,150.276 45.120 C 150.219 47.116,150.116 48.573,150.047 48.357 C 149.943 48.029,149.919 48.021,149.900 48.308 C 149.885 48.534,149.727 48.644,149.436 48.629 C 149.121 48.612,149.090 48.581,149.327 48.518 C 149.523 48.466,149.614 48.313,149.549 48.144 C 149.463 47.919,149.379 47.907,149.160 48.089 C 148.972 48.244,148.815 48.256,148.683 48.123 C 148.550 47.991,148.226 47.995,147.699 48.136 C 147.082 48.301,146.879 48.290,146.753 48.086 C 146.638 47.901,146.487 47.881,146.224 48.016 C 146.022 48.120,145.745 48.166,145.611 48.118 C 145.476 48.070,145.365 48.171,145.365 48.343 C 145.365 48.621,145.292 48.626,144.728 48.390 C 144.067 48.114,143.431 48.115,143.227 48.393 C 143.074 48.601,142.397 48.656,142.524 48.450 C 142.578 48.363,142.510 48.256,142.375 48.210 C 142.183 48.146,142.104 45.885,142.019 38.042 C 141.949 31.598,141.911 36.351,141.914 51.202 M257.757 40.657 C 257.748 44.245,257.699 47.445,257.647 47.769 C 257.552 48.362,257.185 48.944,257.185 48.501 C 257.185 48.374,257.052 48.322,256.891 48.384 C 256.729 48.446,256.596 48.399,256.596 48.280 C 256.596 48.159,256.314 48.077,255.959 48.096 C 255.608 48.113,255.157 48.056,254.955 47.968 C 254.640 47.829,254.607 47.872,254.719 48.278 C 254.822 48.649,254.806 48.681,254.648 48.431 C 254.435 48.093,251.611 48.035,250.858 48.352 C 250.662 48.435,250.515 48.412,250.515 48.298 C 250.515 48.028,249.737 48.248,249.704 48.527 C 249.690 48.649,249.614 48.440,249.534 48.063 C 249.455 47.685,249.393 52.938,249.398 59.735 C 249.402 66.533,249.466 71.344,249.539 70.427 C 249.724 68.110,249.825 67.876,250.636 67.876 C 251.035 67.876,251.301 67.974,251.303 68.122 C 251.305 68.286,251.370 68.269,251.499 68.073 C 251.671 67.811,251.713 67.811,251.885 68.073 C 252.014 68.269,252.079 68.286,252.081 68.122 C 252.086 67.738,252.672 67.834,252.679 68.220 C 252.685 68.547,252.698 68.547,252.946 68.220 C 253.261 67.804,253.542 67.767,253.390 68.161 C 253.318 68.351,253.376 68.409,253.566 68.336 C 253.722 68.276,253.850 68.148,253.850 68.052 C 253.850 67.716,254.800 67.869,254.892 68.220 C 254.977 68.547,254.983 68.547,255.004 68.220 C 255.018 68.015,255.185 67.876,255.419 67.876 C 255.839 67.876,255.978 68.260,255.566 68.281 C 255.432 68.288,255.534 68.379,255.795 68.483 C 256.055 68.587,256.364 68.633,256.481 68.584 C 256.599 68.536,256.536 68.489,256.343 68.480 C 256.055 68.468,256.037 68.417,256.243 68.197 C 256.455 67.970,256.562 67.974,256.937 68.219 C 257.181 68.379,257.387 68.434,257.395 68.340 C 257.402 68.247,257.480 68.347,257.566 68.563 C 257.653 68.779,257.739 70.012,257.758 71.303 C 257.777 72.594,257.832 73.690,257.881 73.738 C 257.930 73.787,257.970 64.896,257.970 53.981 C 257.970 43.065,257.925 34.134,257.872 34.134 C 257.818 34.134,257.766 37.070,257.757 40.657 M220.108 54.271 C 219.467 54.480,218.230 55.033,217.983 55.221 C 217.269 55.765,215.988 57.055,215.988 57.231 C 215.988 57.341,215.865 57.534,215.714 57.659 C 214.181 58.931,214.725 64.553,216.546 66.251 C 217.866 67.482,218.342 67.860,218.342 67.677 C 218.342 67.571,218.431 67.484,218.538 67.484 C 218.646 67.484,218.724 67.550,218.711 67.631 C 218.653 68.004,218.764 68.070,219.127 67.876 C 219.443 67.707,219.519 67.727,219.519 67.979 C 219.519 68.151,219.590 68.248,219.677 68.194 C 219.764 68.141,220.184 68.177,220.609 68.275 C 221.215 68.414,221.430 68.390,221.601 68.165 C 221.890 67.782,222.142 67.796,221.992 68.188 C 221.812 68.657,224.309 68.387,224.972 67.866 C 225.521 67.434,226.099 67.346,225.869 67.729 C 225.634 68.120,226.380 67.499,227.493 66.377 C 230.962 62.880,229.506 56.271,224.887 54.543 C 223.867 54.161,220.953 53.996,220.108 54.271 M223.051 68.073 C 223.051 68.180,222.874 68.269,222.658 68.269 C 222.442 68.269,222.266 68.180,222.266 68.073 C 222.266 67.965,222.442 67.876,222.658 67.876 C 222.874 67.876,223.051 67.965,223.051 68.073 M189.728 158.019 C 189.660 177.136,189.660 177.150,189.481 177.440 C 189.368 177.623,189.052 178.963,189.019 179.402 C 189.011 179.510,188.935 179.708,188.850 179.843 C 188.766 179.978,188.746 180.167,188.805 180.264 C 188.865 180.360,188.782 180.490,188.621 180.552 C 188.460 180.614,188.328 180.849,188.328 181.075 C 188.328 181.300,188.245 181.434,188.145 181.372 C 188.045 181.310,187.898 181.362,187.820 181.489 C 187.736 181.626,187.763 181.666,187.888 181.589 C 188.004 181.517,188.129 181.552,188.167 181.665 C 188.204 181.778,188.492 181.431,188.806 180.894 C 189.347 179.967,189.415 179.920,190.142 179.960 C 190.563 179.984,190.951 179.932,191.004 179.846 C 191.058 179.760,191.177 179.736,191.270 179.794 C 191.625 180.013,193.807 180.032,193.896 179.816 C 193.959 179.665,194.042 179.676,194.165 179.851 C 194.298 180.039,194.477 180.053,194.865 179.905 C 195.727 179.578,195.933 179.784,195.776 180.819 C 195.564 182.216,196.076 181.363,196.458 179.683 C 196.931 177.605,196.901 170.770,196.420 170.965 C 196.231 171.042,194.885 171.105,193.428 171.105 C 190.601 171.107,190.120 171.220,190.046 171.905 C 190.020 172.144,189.952 165.145,189.894 156.351 L 189.790 140.363 189.728 158.019 M389.210 167.620 C 389.210 169.875,389.141 170.888,388.980 170.987 C 388.695 171.163,383.626 171.152,383.338 170.974 C 383.223 170.903,383.128 170.960,383.126 171.102 C 383.124 171.288,383.071 171.278,382.933 171.064 C 382.805 170.867,382.737 171.735,382.725 173.713 C 382.715 175.331,382.669 176.832,382.622 177.048 C 382.575 177.263,382.528 177.771,382.516 178.176 C 382.504 178.580,382.407 178.911,382.300 178.911 C 382.193 178.911,382.157 179.044,382.219 179.205 C 382.281 179.367,382.241 179.500,382.130 179.500 C 382.019 179.500,381.983 179.588,382.050 179.696 C 382.117 179.804,382.073 179.892,381.952 179.892 C 381.831 179.892,381.781 179.971,381.841 180.068 C 381.901 180.164,381.805 180.299,381.628 180.367 C 381.452 180.434,381.363 180.546,381.432 180.614 C 381.500 180.683,381.482 180.835,381.392 180.953 C 381.302 181.071,381.171 181.326,381.102 181.521 C 380.861 182.196,381.368 181.636,381.838 180.707 L 382.306 179.785 383.355 179.823 C 386.061 179.920,387.405 179.918,388.070 179.814 L 388.792 179.702 388.691 180.434 C 388.614 180.988,388.641 181.095,388.799 180.873 C 388.914 180.711,389.010 180.336,389.011 180.039 C 389.013 179.743,389.099 179.500,389.202 179.500 C 389.318 179.500,389.395 176.620,389.402 171.947 C 389.409 167.793,389.368 164.394,389.312 164.394 C 389.256 164.394,389.210 165.846,389.210 167.620 M346.123 174.923 C 346.138 177.530,346.203 179.716,346.267 179.781 C 346.331 179.845,347.700 179.905,349.308 179.914 C 350.916 179.924,352.386 180.014,352.575 180.115 C 352.897 180.287,352.918 180.007,352.918 175.461 C 352.918 171.167,352.885 170.651,352.622 170.870 C 352.415 171.042,351.510 171.114,349.630 171.110 C 346.103 171.103,346.289 171.129,346.185 170.623 C 346.136 170.380,346.107 172.315,346.123 174.923 M201.213 170.800 C 201.139 170.873,201.080 173.015,201.082 175.560 C 201.084 178.104,201.152 180.082,201.233 179.953 C 201.315 179.825,201.644 179.752,201.966 179.790 C 203.246 179.941,205.917 179.956,206.148 179.814 C 206.283 179.730,206.514 179.762,206.661 179.885 C 206.862 180.052,206.966 180.047,207.079 179.866 C 207.186 179.692,207.270 179.731,207.379 180.003 C 207.461 180.212,207.512 178.264,207.492 175.674 C 207.460 171.601,207.415 170.976,207.160 171.038 C 206.332 171.238,201.632 171.128,201.494 170.905 C 201.413 170.774,201.286 170.726,201.213 170.800 M327.095 170.819 C 327.196 170.987,327.099 171.066,326.789 171.070 C 326.540 171.073,325.255 171.095,323.933 171.119 C 322.612 171.143,321.505 171.086,321.474 170.994 C 321.443 170.901,321.300 170.967,321.156 171.141 C 320.932 171.410,320.943 171.457,321.233 171.457 C 321.446 171.457,321.532 171.561,321.465 171.737 C 321.406 171.890,321.484 172.122,321.640 172.251 C 321.795 172.380,321.923 172.601,321.923 172.742 C 321.923 172.883,322.067 173.143,322.244 173.319 C 322.575 173.651,323.324 174.704,325.533 177.951 C 326.853 179.889,327.415 180.532,327.415 180.099 C 327.415 179.937,327.851 179.879,328.858 179.909 C 329.651 179.932,330.412 179.882,330.547 179.798 C 330.687 179.712,330.861 179.753,330.947 179.894 C 331.061 180.077,331.246 180.091,331.662 179.946 C 332.460 179.668,333.401 179.856,334.004 180.415 C 334.288 180.679,334.563 180.853,334.613 180.803 C 334.752 180.664,334.103 179.745,333.779 179.620 C 333.624 179.561,333.497 179.416,333.497 179.298 C 333.497 179.044,331.744 176.488,331.505 176.394 C 331.413 176.358,331.339 176.246,331.339 176.146 C 331.339 175.943,329.635 173.460,328.728 172.340 C 328.640 172.232,328.356 171.790,328.096 171.359 C 327.836 170.927,327.621 170.695,327.618 170.843 C 327.613 171.071,327.561 171.071,327.280 170.843 C 327.054 170.660,326.995 170.652,327.095 170.819 M336.246 175.324 C 336.248 177.998,336.330 180.116,336.439 180.284 C 336.602 180.536,336.630 180.529,336.633 180.235 C 336.634 180.047,336.702 179.884,336.783 179.874 C 337.707 179.759,338.708 179.759,339.141 179.875 C 339.435 179.954,340.018 179.955,340.438 179.878 C 340.858 179.802,341.445 179.809,341.742 179.894 C 342.470 180.103,342.522 179.792,342.518 175.208 C 342.514 170.777,342.783 171.156,339.620 171.109 C 338.187 171.088,336.841 170.978,336.629 170.864 C 336.251 170.662,336.243 170.746,336.246 175.324 M11.717 171.152 C 10.751 171.560,10.534 172.084,10.795 173.372 C 11.222 175.479,11.841 177.830,12.184 178.648 C 12.372 179.097,12.474 179.516,12.410 179.580 C 12.346 179.644,12.397 179.696,12.522 179.696 C 12.648 179.696,12.753 179.850,12.754 180.039 C 12.757 180.303,12.796 180.322,12.924 180.120 C 13.044 179.930,13.490 179.874,14.539 179.918 C 15.336 179.951,16.077 179.935,16.184 179.882 C 16.292 179.829,16.557 179.797,16.773 179.810 C 16.989 179.823,17.422 179.847,17.735 179.863 C 18.295 179.892,18.298 179.899,17.946 180.289 C 17.676 180.587,17.643 180.742,17.811 180.910 C 17.979 181.079,18.065 181.057,18.154 180.824 C 18.220 180.653,18.620 180.149,19.044 179.704 C 19.994 178.705,19.994 178.671,19.020 176.811 C 18.583 175.977,17.972 174.365,17.661 173.229 C 17.350 172.092,17.089 171.239,17.081 171.333 C 17.073 171.428,16.956 171.412,16.819 171.299 C 16.679 171.182,15.714 171.100,14.596 171.110 C 13.509 171.120,12.539 171.082,12.441 171.025 C 12.342 170.969,12.016 171.026,11.717 171.152 M65.253 171.024 C 65.206 171.100,64.559 171.155,63.815 171.147 L 62.462 171.132 62.625 172.520 C 63.059 176.231,65.130 182.852,65.130 180.530 L 65.130 179.990 68.665 179.936 L 72.199 179.881 72.865 180.412 C 74.083 181.384,74.195 181.054,73.030 179.926 C 71.371 178.320,69.320 174.074,68.953 171.488 C 68.868 170.891,68.728 170.766,68.421 171.015 C 68.191 171.201,66.134 171.169,65.578 170.971 C 65.446 170.924,65.300 170.948,65.253 171.024 M107.111 171.089 C 107.111 171.196,107.040 171.240,106.953 171.186 C 106.817 171.102,107.420 175.312,107.793 177.048 C 108.075 178.361,108.889 180.383,109.290 180.763 C 109.729 181.180,109.734 181.141,109.352 180.202 C 109.264 179.984,109.466 179.919,110.284 179.900 C 110.859 179.886,111.506 179.871,111.721 179.865 C 111.937 179.859,113.108 179.877,114.323 179.904 C 115.538 179.931,116.577 179.908,116.632 179.854 C 116.686 179.799,117.049 180.054,117.438 180.421 C 117.826 180.787,118.200 181.030,118.268 180.960 C 118.336 180.889,117.980 180.466,117.478 180.019 C 116.976 179.571,116.376 178.852,116.144 178.421 C 115.912 177.989,115.650 177.504,115.561 177.342 C 114.952 176.232,114.553 175.253,114.081 173.713 C 113.783 172.742,113.400 171.837,113.230 171.702 C 112.952 171.481,113.038 171.370,113.438 171.433 C 113.519 171.446,113.585 171.375,113.585 171.275 C 113.585 171.175,112.919 171.098,112.105 171.103 C 111.292 171.109,110.581 171.068,110.526 171.013 C 110.471 170.959,110.100 170.988,109.701 171.078 C 109.302 171.168,108.798 171.203,108.583 171.155 C 107.570 170.931,107.111 170.910,107.111 171.089 M151.496 174.628 C 151.552 177.834,151.631 178.664,152.004 179.990 C 152.247 180.853,152.457 181.670,152.470 181.805 C 152.483 181.940,152.567 182.050,152.657 182.050 C 152.860 182.050,152.873 181.518,152.673 181.394 C 152.592 181.344,152.526 181.007,152.526 180.646 L 152.526 179.990 155.370 179.990 C 156.991 179.990,158.274 179.908,158.352 179.799 C 158.431 179.688,158.697 179.804,158.989 180.079 C 159.607 180.659,159.635 180.391,159.113 178.904 C 158.695 177.712,158.313 174.739,158.313 172.674 C 158.313 171.746,158.237 171.314,158.068 171.289 C 157.933 171.269,156.491 171.225,154.864 171.191 C 153.238 171.157,151.799 171.063,151.668 170.982 C 151.484 170.868,151.445 171.692,151.496 174.628 M263.298 171.111 C 263.173 171.236,263.070 171.272,263.070 171.190 C 263.070 170.822,262.200 171.703,261.899 172.376 C 261.314 173.685,260.783 173.615,271.289 173.615 L 280.848 173.615 281.878 176.214 C 283.158 179.444,283.512 180.172,283.835 180.240 C 283.975 180.270,284.035 180.205,283.968 180.096 C 283.888 179.967,284.648 179.905,286.160 179.918 C 287.433 179.929,288.607 179.888,288.769 179.827 C 289.624 179.504,291.414 180.285,290.964 180.785 C 290.890 180.868,290.939 180.872,291.075 180.794 C 291.257 180.689,291.266 180.552,291.110 180.260 C 290.994 180.044,290.864 179.684,290.821 179.460 C 290.778 179.237,290.594 178.889,290.412 178.688 C 290.230 178.487,290.142 178.323,290.215 178.323 C 290.289 178.323,290.038 177.721,289.657 176.986 C 289.277 176.250,288.965 175.577,288.965 175.489 C 288.965 175.181,287.352 171.553,287.162 171.435 C 287.056 171.369,286.955 171.236,286.938 171.140 C 286.920 171.045,286.817 171.001,286.709 171.043 C 286.429 171.154,280.270 171.203,280.061 171.096 C 279.965 171.047,279.171 171.030,278.296 171.058 C 276.350 171.120,270.807 171.137,270.132 171.083 C 269.863 171.062,268.346 171.057,266.762 171.074 C 265.178 171.090,263.801 171.054,263.703 170.994 C 263.605 170.933,263.423 170.986,263.298 171.111 M300.268 171.173 C 300.202 171.347,300.147 173.374,300.147 175.679 L 300.147 179.868 302.452 179.929 C 303.720 179.963,305.066 179.945,305.444 179.889 L 306.130 179.788 306.183 175.454 L 306.236 171.120 303.535 171.159 C 302.049 171.181,300.734 171.122,300.611 171.028 C 300.472 170.921,300.344 170.975,300.268 171.173 M51.176 171.276 C 51.039 171.361,50.841 171.378,50.736 171.313 C 50.627 171.246,50.599 171.334,50.672 171.523 C 50.741 171.702,50.721 171.849,50.629 171.849 C 50.537 171.849,50.399 172.268,50.322 172.781 C 50.245 173.293,50.017 174.056,49.814 174.475 C 49.612 174.894,49.487 175.304,49.537 175.385 C 49.587 175.466,49.497 175.640,49.338 175.772 C 49.178 175.905,49.096 176.091,49.155 176.186 C 49.296 176.415,46.938 179.850,46.467 180.102 C 46.266 180.210,46.101 180.425,46.101 180.580 C 46.101 180.789,46.279 180.740,46.792 180.392 C 47.467 179.934,47.570 179.924,51.301 179.959 C 55.071 179.995,55.547 179.920,55.317 179.326 C 55.301 179.284,55.367 179.195,55.463 179.129 C 55.560 179.063,55.830 178.391,56.064 177.636 C 57.177 174.039,57.317 171.605,56.429 171.275 C 55.884 171.073,51.504 171.073,51.176 171.276 M253.651 171.460 C 253.513 171.651,253.435 171.839,253.477 171.877 C 253.520 171.916,253.373 172.212,253.153 172.536 C 252.932 172.859,252.104 174.647,251.313 176.508 C 250.522 178.369,249.808 179.892,249.727 179.892 C 249.646 179.892,249.539 180.105,249.489 180.365 C 249.375 180.963,249.769 180.847,250.128 180.176 C 250.365 179.734,250.907 179.502,250.907 179.843 C 250.907 179.924,252.232 179.982,253.850 179.972 C 255.865 179.960,256.793 180.023,256.793 180.170 C 256.793 180.288,256.706 180.688,256.600 181.057 C 256.200 182.451,256.806 181.280,257.863 178.617 C 258.462 177.106,259.074 175.650,259.223 175.380 C 259.372 175.110,259.555 174.603,259.630 174.252 C 259.705 173.901,259.846 173.615,259.943 173.615 C 260.040 173.615,260.178 173.372,260.249 173.075 C 260.321 172.778,260.507 172.281,260.664 171.970 C 261.074 171.158,260.926 171.122,257.197 171.117 C 254.264 171.112,253.875 171.150,253.651 171.460 M20.333 180.177 C 20.047 180.442,19.814 180.766,19.814 180.898 C 19.814 181.033,20.012 180.951,20.268 180.711 C 20.784 180.226,21.009 180.185,21.342 180.518 C 21.894 181.070,22.203 180.833,21.664 180.271 C 20.998 179.575,20.983 179.574,20.333 180.177 M13.076 180.765 C 13.016 180.922,13.136 181.253,13.343 181.501 C 13.550 181.749,13.722 181.848,13.726 181.721 C 13.729 181.594,13.615 181.372,13.471 181.229 C 13.328 181.085,13.247 180.858,13.291 180.724 C 13.406 180.381,13.209 180.419,13.076 180.765 M159.490 180.861 C 159.490 180.963,159.578 181.101,159.686 181.167 C 160.551 181.702,159.825 181.854,156.417 181.854 C 154.510 181.854,152.993 181.896,153.045 181.948 C 153.127 182.030,156.976 182.099,159.441 182.062 C 160.323 182.049,160.540 181.730,159.983 181.267 C 159.822 181.134,159.739 180.946,159.798 180.851 C 159.857 180.755,159.812 180.677,159.698 180.677 C 159.583 180.677,159.490 180.760,159.490 180.861 M336.358 180.847 C 336.300 180.940,336.427 181.175,336.640 181.368 C 336.853 181.561,337.028 181.626,337.028 181.513 C 337.028 181.400,336.890 181.254,336.721 181.190 C 336.553 181.125,336.470 180.983,336.537 180.874 C 336.604 180.766,336.615 180.677,336.561 180.677 C 336.507 180.677,336.415 180.753,336.358 180.847 M195.034 183.128 C 194.911 183.398,194.886 183.619,194.979 183.619 C 195.142 183.619,195.435 182.815,195.316 182.695 C 195.284 182.663,195.157 182.858,195.034 183.128 M40.608 183.227 C 40.214 183.353,40.195 183.385,40.510 183.390 C 40.726 183.393,41.079 183.320,41.295 183.227 C 41.795 183.012,41.279 183.012,40.608 183.227 M156.008 183.373 C 156.952 183.409,158.497 183.409,159.441 183.373 C 160.385 183.337,159.613 183.308,157.724 183.308 C 155.836 183.308,155.064 183.337,156.008 183.373 M29.868 183.755 C 30.056 183.804,30.365 183.804,30.554 183.755 C 30.743 183.705,30.589 183.665,30.211 183.665 C 29.833 183.665,29.679 183.705,29.868 183.755 M37.518 183.755 C 37.707 183.804,38.016 183.804,38.205 183.755 C 38.394 183.705,38.239 183.665,37.862 183.665 C 37.484 183.665,37.330 183.705,37.518 183.755 " stroke="none" fill="#95bffb" fill-rule="evenodd"></path><path id="path3" d="M141.849 13.847 C 141.875 32.522,142.119 48.125,142.386 48.214 C 142.515 48.257,142.578 48.363,142.524 48.450 C 142.397 48.656,143.074 48.601,143.227 48.393 C 143.431 48.115,144.067 48.114,144.728 48.390 C 145.292 48.626,145.365 48.621,145.365 48.343 C 145.365 48.171,145.476 48.070,145.611 48.118 C 145.745 48.166,146.022 48.120,146.224 48.016 C 146.487 47.881,146.638 47.901,146.753 48.086 C 146.879 48.290,147.082 48.301,147.699 48.136 C 148.226 47.995,148.550 47.991,148.683 48.123 C 148.815 48.256,148.972 48.244,149.160 48.089 C 149.379 47.907,149.463 47.919,149.549 48.144 C 149.614 48.313,149.523 48.466,149.327 48.518 C 149.090 48.581,149.121 48.612,149.436 48.629 C 149.730 48.644,149.882 48.536,149.891 48.308 C 149.903 48.017,149.929 48.024,150.061 48.357 C 150.278 48.901,150.390 41.605,150.262 35.311 C 150.204 32.452,150.137 30.318,150.115 30.568 C 150.092 30.819,149.930 31.168,149.753 31.344 C 149.457 31.640,149.443 31.635,149.557 31.274 C 149.653 30.973,149.591 30.883,149.289 30.883 C 149.073 30.883,148.897 30.997,148.897 31.136 C 148.897 31.274,148.764 31.388,148.602 31.388 C 148.440 31.388,148.308 31.300,148.308 31.192 C 148.308 30.909,147.771 30.950,147.653 31.241 C 147.577 31.430,147.551 31.431,147.539 31.245 C 147.527 31.057,147.411 31.055,147.019 31.234 C 146.695 31.382,146.467 31.395,146.381 31.271 C 146.212 31.025,144.777 31.005,144.777 31.248 C 144.777 31.348,144.563 31.377,144.303 31.311 C 144.009 31.238,143.791 31.286,143.730 31.437 C 143.673 31.578,143.624 31.531,143.615 31.326 C 143.605 31.079,143.494 31.002,143.256 31.076 C 142.139 31.424,142.089 30.764,142.053 15.315 C 142.037 8.687,141.982 3.221,141.929 3.169 C 141.877 3.116,141.841 7.921,141.849 13.847 M257.733 18.448 C 257.671 31.672,257.695 31.372,256.744 31.076 C 256.551 31.016,256.400 31.070,256.400 31.200 C 256.400 31.343,256.270 31.376,256.057 31.287 C 255.625 31.108,250.319 31.048,250.319 31.222 C 250.319 31.293,250.142 31.305,249.926 31.249 C 249.538 31.147,249.534 31.242,249.537 39.948 C 249.539 44.789,249.605 48.655,249.684 48.539 C 249.897 48.228,250.515 48.040,250.515 48.286 C 250.515 48.411,250.654 48.438,250.858 48.352 C 251.611 48.035,254.435 48.093,254.648 48.431 C 254.806 48.681,254.822 48.649,254.719 48.278 C 254.607 47.872,254.640 47.829,254.955 47.968 C 255.157 48.056,255.608 48.113,255.959 48.096 C 256.314 48.077,256.596 48.159,256.596 48.280 C 256.596 48.399,256.729 48.446,256.891 48.384 C 257.052 48.322,257.185 48.374,257.185 48.501 C 257.185 48.978,257.548 48.338,257.656 47.670 C 257.811 46.708,258.062 6.081,257.912 6.081 C 257.845 6.081,257.764 11.646,257.733 18.448 M172.513 31.143 C 172.454 31.332,172.324 31.689,172.225 31.937 C 171.421 33.948,172.249 37.366,173.984 39.195 C 179.340 44.841,188.086 39.569,186.146 31.864 C 185.924 30.985,185.532 30.427,185.682 31.204 C 185.758 31.602,185.741 31.606,185.279 31.303 C 185.014 31.129,184.796 31.078,184.796 31.189 C 184.796 31.314,184.637 31.297,184.378 31.144 C 184.041 30.945,183.943 30.946,183.869 31.151 C 183.794 31.358,183.721 31.358,183.470 31.151 C 183.241 30.962,183.143 30.956,183.085 31.128 C 183.038 31.269,182.744 31.327,182.333 31.276 C 181.961 31.230,181.349 31.153,180.971 31.106 C 180.465 31.043,180.284 31.094,180.284 31.302 C 180.284 31.457,180.196 31.584,180.088 31.584 C 179.980 31.584,179.891 31.430,179.889 31.241 C 179.887 31.021,179.834 30.978,179.742 31.122 C 179.442 31.591,177.937 31.435,177.924 30.933 C 177.921 30.806,177.830 30.853,177.722 31.038 C 177.572 31.296,177.420 31.333,177.066 31.199 C 176.574 31.012,176.197 31.023,175.856 31.237 C 175.681 31.346,174.766 31.313,174.399 31.184 C 174.106 31.082,173.475 31.111,173.185 31.241 C 172.991 31.327,172.795 31.295,172.713 31.162 C 172.620 31.012,172.660 30.989,172.830 31.094 C 173.000 31.199,173.039 31.176,172.947 31.026 C 172.752 30.712,172.639 30.742,172.513 31.143 M342.325 179.682 C 342.325 180.006,342.243 180.037,341.763 179.900 C 341.454 179.811,340.858 179.802,340.438 179.878 C 340.018 179.955,339.435 179.954,339.141 179.875 C 338.708 179.759,337.707 179.759,336.783 179.874 C 336.702 179.884,336.634 180.047,336.633 180.235 C 336.630 180.529,336.602 180.536,336.439 180.284 C 336.286 180.046,336.249 180.074,336.246 180.430 C 336.245 180.672,336.420 180.980,336.636 181.115 C 336.851 181.249,337.028 181.432,337.028 181.520 C 337.028 181.609,336.919 181.614,336.787 181.532 C 336.654 181.450,336.744 181.643,336.987 181.962 C 337.229 182.280,337.729 182.982,338.098 183.521 C 338.467 184.061,338.942 184.688,339.154 184.915 C 339.367 185.142,340.054 186.143,340.682 187.139 C 341.736 188.811,342.486 189.397,341.557 187.822 C 341.332 187.440,341.257 187.196,341.393 187.280 C 341.764 187.513,342.128 187.531,342.128 187.318 C 342.128 187.213,342.217 187.182,342.325 187.249 C 342.453 187.328,342.521 185.976,342.521 183.337 C 342.521 181.119,342.477 179.304,342.423 179.304 C 342.369 179.304,342.325 179.474,342.325 179.682 M346.075 183.171 C 346.048 187.910,345.709 187.498,349.559 187.424 C 351.785 187.381,352.439 187.428,352.658 187.647 C 352.958 187.947,368.275 188.032,369.103 187.739 C 369.862 187.469,367.993 187.401,360.373 187.423 L 352.820 187.445 352.877 183.876 C 352.944 179.713,353.026 179.871,350.816 179.908 C 347.120 179.970,346.280 179.905,346.187 179.549 C 346.138 179.360,346.087 180.990,346.075 183.171 M55.214 179.748 C 55.141 179.937,54.223 179.987,51.301 179.959 C 47.570 179.924,47.467 179.934,46.792 180.392 C 46.412 180.650,46.101 180.766,46.101 180.651 C 46.101 180.535,45.792 180.712,45.413 181.044 C 44.256 182.060,41.538 183.235,39.645 183.537 C 36.801 183.992,27.868 183.758,26.829 183.202 C 26.639 183.100,26.484 183.061,26.484 183.114 C 26.484 183.297,23.922 182.061,23.031 181.448 C 22.540 181.110,22.012 180.815,21.857 180.793 C 21.702 180.770,21.470 180.646,21.342 180.518 C 21.007 180.183,20.710 180.229,20.303 180.678 C 20.107 180.894,19.913 181.038,19.872 180.997 C 19.779 180.904,18.637 181.894,18.637 182.068 C 18.637 182.138,18.167 182.670,17.592 183.250 C 17.018 183.831,16.382 184.561,16.179 184.873 L 15.809 185.440 17.345 186.884 C 18.930 188.374,19.225 188.551,19.225 188.012 C 19.225 187.793,19.121 187.737,18.882 187.828 C 18.600 187.935,18.584 187.913,18.794 187.702 C 19.002 187.492,32.181 187.270,39.529 187.353 C 39.637 187.354,41.866 187.375,44.483 187.400 C 47.099 187.425,49.240 187.511,49.240 187.592 C 49.240 187.969,49.720 187.627,51.091 186.274 C 51.907 185.468,52.575 184.758,52.575 184.696 C 52.575 184.634,52.665 184.477,52.775 184.347 C 53.537 183.442,53.752 183.147,53.752 183.001 C 53.752 182.662,53.818 182.535,54.108 182.324 C 54.276 182.200,54.351 181.969,54.281 181.787 C 54.202 181.579,54.303 181.390,54.570 181.247 C 54.900 181.071,54.928 180.993,54.710 180.855 C 54.522 180.736,54.512 180.682,54.679 180.680 C 54.811 180.678,55.056 180.412,55.223 180.088 C 55.391 179.765,55.478 179.500,55.418 179.500 C 55.358 179.500,55.266 179.611,55.214 179.748 M290.936 179.909 C 291.224 180.447,291.000 180.656,290.650 180.177 C 290.376 179.803,289.342 179.610,288.769 179.827 C 288.607 179.888,287.447 179.929,286.191 179.919 C 284.394 179.903,283.855 179.961,283.666 180.190 C 283.469 180.426,283.484 180.481,283.743 180.481 C 283.918 180.481,284.061 180.574,284.061 180.688 C 284.061 180.803,283.972 180.841,283.862 180.773 C 283.614 180.620,284.664 183.335,285.895 186.027 C 286.279 186.865,286.594 187.597,286.595 187.652 C 286.600 187.875,287.227 188.365,287.350 188.242 C 287.423 188.170,287.379 188.046,287.253 187.968 C 286.651 187.596,287.533 187.443,290.422 187.417 C 293.953 187.386,293.905 187.367,294.561 189.063 C 294.738 189.522,294.964 189.897,295.063 189.897 C 295.333 189.897,295.282 189.596,294.873 188.775 C 294.100 187.227,292.491 183.631,292.389 183.227 C 292.160 182.314,291.777 181.538,291.586 181.601 C 291.466 181.641,291.314 181.534,291.248 181.362 C 291.178 181.180,291.209 181.099,291.322 181.169 C 291.428 181.235,291.515 181.141,291.515 180.962 C 291.515 180.739,291.413 180.674,291.193 180.758 C 290.930 180.860,290.914 180.830,291.109 180.596 C 291.332 180.328,291.110 179.500,290.815 179.500 C 290.761 179.500,290.815 179.684,290.936 179.909 M16.166 179.878 C 16.110 179.934,15.375 179.953,14.533 179.921 C 12.750 179.852,12.434 180.118,13.249 180.997 C 13.764 181.554,13.892 181.958,13.487 181.753 C 13.352 181.684,13.382 181.745,13.553 181.888 C 13.725 182.031,13.831 182.248,13.790 182.371 C 13.748 182.493,13.829 182.717,13.969 182.869 C 14.108 183.021,14.320 183.318,14.440 183.530 C 14.914 184.369,15.384 184.132,16.773 182.356 C 17.097 181.942,17.477 181.484,17.619 181.338 C 17.761 181.192,17.818 180.978,17.747 180.862 C 17.676 180.747,17.772 180.481,17.961 180.272 C 18.292 179.906,18.287 179.891,17.833 179.867 C 17.574 179.853,17.115 179.827,16.815 179.809 C 16.514 179.790,16.222 179.821,16.166 179.878 M111.133 179.884 C 110.809 179.959,110.243 179.978,109.874 179.926 C 109.308 179.845,109.224 179.881,109.334 180.155 C 109.759 181.210,109.757 181.185,109.400 180.894 C 109.102 180.652,109.080 180.663,109.205 180.992 C 109.516 181.815,110.104 182.630,110.300 182.510 C 110.424 182.433,110.449 182.476,110.360 182.619 C 110.215 182.855,110.996 184.204,111.280 184.207 C 111.361 184.207,111.427 184.333,111.427 184.486 C 111.427 184.639,111.493 184.793,111.574 184.829 C 111.655 184.865,112.153 185.380,112.679 185.974 C 113.206 186.567,113.801 187.052,114.000 187.052 C 114.199 187.052,114.373 187.141,114.385 187.249 C 114.434 187.663,114.790 188.137,114.970 188.026 C 115.073 187.963,115.210 188.048,115.275 188.217 C 115.421 188.597,115.743 188.620,115.743 188.251 C 115.743 188.100,115.611 187.926,115.449 187.864 C 114.607 187.541,115.521 187.434,119.078 187.439 C 121.236 187.442,123.001 187.509,123.001 187.587 C 123.001 187.665,123.209 187.650,123.463 187.554 C 123.717 187.457,124.931 187.401,126.161 187.428 C 127.390 187.456,128.551 187.401,128.740 187.307 C 128.928 187.214,129.083 187.209,129.083 187.297 C 129.083 187.493,145.395 187.473,145.713 187.276 C 145.880 187.173,145.958 187.733,146.004 189.350 C 146.047 190.902,146.078 190.479,146.105 187.935 C 146.127 185.939,146.077 184.200,145.995 184.071 C 145.883 183.895,143.249 183.812,135.551 183.741 C 123.485 183.630,124.221 183.650,124.081 183.423 C 124.020 183.325,123.839 183.294,123.679 183.356 C 123.520 183.417,123.258 183.358,123.097 183.225 C 122.937 183.092,122.805 183.033,122.805 183.095 C 122.805 183.212,122.021 182.910,120.353 182.153 C 119.814 181.908,119.308 181.719,119.229 181.732 C 119.150 181.745,118.945 181.556,118.774 181.311 C 118.603 181.067,118.388 180.913,118.296 180.970 C 118.204 181.026,117.814 180.776,117.430 180.414 C 117.045 180.051,116.686 179.799,116.632 179.853 C 116.517 179.968,112.526 179.945,112.045 179.827 C 111.867 179.783,111.457 179.809,111.133 179.884 M158.313 179.843 C 158.313 179.924,157.011 179.990,155.420 179.990 L 152.526 179.990 152.526 180.646 C 152.526 181.007,152.592 181.344,152.673 181.394 C 152.754 181.444,152.820 181.656,152.820 181.865 C 152.820 182.214,152.955 182.243,154.438 182.210 L 156.057 182.174 154.487 182.050 C 153.265 181.953,153.688 181.918,156.400 181.890 C 159.408 181.859,159.882 181.812,159.882 181.548 C 159.882 181.356,159.973 181.297,160.128 181.389 C 160.294 181.490,160.286 181.430,160.103 181.205 C 159.798 180.829,159.591 180.756,159.803 181.099 C 159.892 181.243,159.857 181.273,159.706 181.180 C 159.576 181.099,159.502 180.934,159.543 180.813 C 159.583 180.692,159.376 180.391,159.083 180.144 C 158.529 179.678,158.313 179.593,158.313 179.843 M191.004 179.846 C 190.951 179.932,190.555 179.983,190.124 179.959 C 189.568 179.928,189.308 180.004,189.225 180.220 C 189.130 180.466,189.052 180.478,188.816 180.283 C 188.638 180.135,188.524 180.120,188.524 180.244 C 188.524 180.356,188.631 180.484,188.762 180.527 C 188.926 180.582,188.861 180.815,188.553 181.279 C 188.180 181.840,188.128 181.871,188.238 181.462 C 188.339 181.087,188.215 181.176,187.711 181.841 C 186.496 183.445,185.512 184.428,184.612 184.937 C 184.120 185.216,183.497 185.581,183.227 185.750 C 182.957 185.919,182.648 186.065,182.540 186.075 C 182.433 186.085,182.091 186.200,181.781 186.332 C 181.471 186.463,180.986 186.584,180.702 186.601 C 180.418 186.618,180.103 186.677,180.000 186.731 C 179.332 187.085,172.241 187.288,170.314 187.008 C 169.404 186.875,168.588 186.811,168.502 186.864 C 168.416 186.917,168.297 186.883,168.238 186.787 C 168.140 186.629,166.640 186.274,166.319 186.333 C 166.073 186.378,163.956 185.189,163.315 184.645 C 161.755 183.321,162.195 183.419,157.706 183.400 C 155.437 183.390,153.529 183.433,153.468 183.495 C 153.324 183.639,153.799 184.796,154.002 184.796 C 154.087 184.796,154.386 185.189,154.667 185.668 C 155.627 187.306,159.940 190.885,160.400 190.426 C 160.585 190.241,160.251 189.864,159.991 189.964 C 159.857 190.015,159.626 189.889,159.477 189.683 C 159.329 189.477,159.102 189.308,158.973 189.308 C 158.844 189.308,158.709 189.242,158.673 189.161 C 158.545 188.874,157.182 187.954,157.062 188.075 C 156.995 188.142,156.940 188.061,156.940 187.894 C 156.940 187.416,157.617 187.379,164.296 187.492 C 172.338 187.628,176.509 187.630,183.374 187.499 C 186.770 187.435,188.916 187.465,188.916 187.578 C 188.916 187.679,189.026 187.693,189.161 187.607 C 189.400 187.457,191.270 187.343,191.270 187.480 C 191.270 187.517,191.163 187.720,191.032 187.929 C 190.729 188.414,191.023 188.735,191.355 188.281 C 191.491 188.094,191.639 187.969,191.682 188.004 C 191.725 188.038,191.915 187.904,192.104 187.706 C 192.293 187.509,192.417 187.347,192.380 187.347 C 192.342 187.347,192.651 186.990,193.066 186.554 C 193.481 186.118,193.821 185.642,193.821 185.496 C 193.821 185.350,193.959 185.178,194.127 185.113 C 194.296 185.048,194.385 184.916,194.324 184.818 C 194.264 184.721,194.356 184.587,194.529 184.521 C 194.707 184.453,194.794 184.275,194.730 184.108 C 194.668 183.947,194.703 183.816,194.808 183.816 C 194.912 183.816,194.987 183.749,194.974 183.668 C 194.913 183.279,195.017 183.020,195.191 183.128 C 195.303 183.196,195.336 183.118,195.269 182.943 C 195.204 182.775,195.254 182.639,195.380 182.639 C 195.506 182.639,195.552 182.546,195.483 182.434 C 195.413 182.321,195.463 182.100,195.593 181.943 C 195.724 181.786,195.789 181.658,195.739 181.658 C 195.689 181.658,195.708 181.264,195.781 180.783 C 195.932 179.787,195.718 179.581,194.865 179.905 C 194.477 180.053,194.298 180.039,194.165 179.851 C 194.042 179.676,193.959 179.665,193.896 179.816 C 193.807 180.032,191.625 180.013,191.270 179.794 C 191.177 179.736,191.058 179.760,191.004 179.846 M201.197 180.010 C 201.132 180.179,201.086 181.965,201.094 183.979 C 201.103 185.993,201.155 187.530,201.209 187.395 C 201.264 187.259,201.403 187.207,201.519 187.278 C 201.635 187.350,202.024 187.397,202.385 187.383 C 202.915 187.363,203.041 187.433,203.041 187.745 C 203.041 188.273,203.236 188.232,203.990 187.543 C 204.344 187.219,204.673 186.954,204.720 186.954 C 204.767 186.954,205.133 186.646,205.533 186.268 C 205.933 185.891,206.419 185.532,206.612 185.470 C 206.806 185.409,206.964 185.276,206.964 185.176 C 206.964 185.075,207.097 184.993,207.258 184.993 C 207.504 184.993,207.550 184.612,207.539 182.688 C 207.525 180.359,207.368 179.397,207.079 179.866 C 206.966 180.047,206.862 180.052,206.661 179.885 C 206.514 179.762,206.282 179.731,206.146 179.815 C 205.906 179.963,203.183 179.943,201.936 179.783 C 201.500 179.727,201.279 179.795,201.197 180.010 M250.319 179.865 C 250.319 179.959,250.090 180.264,249.810 180.543 C 249.004 181.349,246.895 185.777,247.317 185.777 C 247.391 185.777,247.294 185.893,247.101 186.033 C 246.908 186.174,246.737 186.527,246.720 186.818 C 246.703 187.109,246.623 187.347,246.542 187.347 C 246.462 187.347,246.406 187.413,246.419 187.494 C 246.484 187.908,246.371 188.140,246.166 188.013 C 246.011 187.917,245.977 187.978,246.062 188.197 C 246.130 188.377,246.120 188.524,246.039 188.524 C 245.957 188.524,245.876 188.715,245.858 188.949 C 245.837 189.236,246.026 189.050,246.439 188.378 C 247.044 187.394,247.063 187.382,247.950 187.435 C 248.443 187.464,249.002 187.409,249.191 187.313 C 249.402 187.205,249.534 187.210,249.534 187.325 C 249.534 187.439,250.353 187.484,251.594 187.438 C 252.727 187.395,253.654 187.400,253.654 187.448 C 253.654 187.495,253.432 188.123,253.161 188.844 C 252.746 189.946,252.647 190.598,252.944 190.273 C 253.075 190.129,254.057 187.681,254.471 186.464 C 254.692 185.817,255.079 184.934,255.332 184.502 C 255.585 184.071,255.807 183.629,255.827 183.521 C 255.895 183.139,256.039 182.732,256.234 182.371 C 256.342 182.170,256.468 181.817,256.513 181.586 C 256.558 181.356,256.647 180.894,256.710 180.561 L 256.824 179.955 253.866 179.972 C 252.239 179.982,250.907 179.924,250.907 179.843 C 250.907 179.762,250.775 179.696,250.613 179.696 C 250.451 179.696,250.319 179.772,250.319 179.865 M305.977 179.817 C 305.910 179.884,304.571 179.925,303.001 179.910 L 300.147 179.881 300.147 183.394 C 300.147 186.188,300.204 186.954,300.426 187.137 C 300.789 187.439,304.756 187.578,305.591 187.319 L 306.229 187.120 306.229 183.408 C 306.229 181.366,306.199 179.696,306.163 179.696 C 306.127 179.696,306.043 179.750,305.977 179.817 M330.491 179.824 C 330.421 179.895,329.700 179.933,328.889 179.910 C 327.858 179.879,327.415 179.936,327.415 180.099 C 327.415 180.267,327.319 180.258,327.072 180.067 C 326.786 179.845,326.791 179.874,327.098 180.234 C 327.302 180.473,327.543 180.621,327.636 180.564 C 327.728 180.507,327.757 180.581,327.700 180.728 C 327.644 180.876,327.817 181.234,328.086 181.523 C 328.354 181.813,328.533 182.050,328.483 182.050 C 328.349 182.050,330.190 184.294,330.387 184.371 C 330.479 184.407,330.554 184.555,330.554 184.698 C 330.554 184.842,330.620 184.989,330.701 185.025 C 330.942 185.132,331.809 186.397,332.327 187.396 C 332.592 187.908,332.876 188.328,332.957 188.328 C 333.038 188.328,333.104 188.460,333.104 188.622 C 333.104 188.784,333.237 188.916,333.399 188.916 C 333.561 188.916,333.672 188.982,333.645 189.063 C 333.562 189.322,334.266 190.174,334.424 190.005 C 334.508 189.916,334.465 189.804,334.331 189.756 C 334.196 189.708,334.085 189.585,334.085 189.484 C 334.085 189.383,333.856 188.954,333.576 188.531 C 333.296 188.108,333.119 187.679,333.181 187.578 C 333.323 187.348,334.262 187.156,334.372 187.334 C 334.416 187.406,335.297 187.450,336.329 187.432 C 337.460 187.412,338.205 187.476,338.205 187.593 C 338.205 187.708,338.314 187.697,338.472 187.566 C 338.682 187.391,338.853 187.510,339.281 188.127 C 339.579 188.557,339.910 188.856,340.016 188.790 C 340.126 188.722,340.134 188.618,340.033 188.548 C 339.937 188.481,339.575 187.984,339.230 187.445 C 338.885 186.905,338.463 186.287,338.294 186.072 C 338.125 185.856,337.858 185.412,337.701 185.085 C 337.545 184.758,337.057 184.055,336.618 183.524 C 336.178 182.992,335.691 182.310,335.536 182.009 C 335.380 181.708,335.161 181.462,335.050 181.462 C 334.938 181.462,334.902 181.373,334.969 181.264 C 335.036 181.155,334.943 181.010,334.763 180.940 C 334.583 180.871,334.221 180.617,333.960 180.375 C 333.393 179.849,332.440 179.675,331.645 179.952 C 331.223 180.099,331.046 180.091,330.990 179.925 C 330.906 179.671,330.688 179.627,330.491 179.824 M382.072 179.928 C 382.181 180.104,381.453 181.579,381.172 181.753 C 381.055 181.825,381.022 181.731,381.090 181.521 C 381.186 181.225,381.170 181.215,380.993 181.462 C 380.876 181.623,380.780 181.880,380.778 182.032 C 380.774 182.345,379.341 183.816,379.039 183.816 C 378.930 183.816,378.670 184.033,378.461 184.299 C 378.252 184.565,378.037 184.740,377.984 184.687 C 377.931 184.634,377.777 184.725,377.640 184.890 C 377.504 185.054,377.313 185.189,377.216 185.189 C 377.119 185.189,376.681 185.416,376.241 185.693 C 375.802 185.970,375.274 186.209,375.068 186.225 C 374.862 186.240,374.693 186.317,374.693 186.395 C 374.693 186.474,374.539 186.539,374.350 186.542 C 373.993 186.546,373.743 186.588,371.947 186.947 C 371.354 187.066,370.579 187.174,370.225 187.189 C 369.856 187.203,369.613 187.306,369.655 187.428 C 369.697 187.548,370.104 187.620,370.593 187.593 C 371.068 187.566,372.472 187.505,373.713 187.456 C 374.953 187.407,376.057 187.357,376.165 187.345 C 376.273 187.333,377.222 187.352,378.274 187.388 C 379.326 187.424,380.186 187.397,380.186 187.328 C 380.186 187.260,380.517 187.262,380.922 187.333 C 381.327 187.405,382.099 187.446,382.639 187.425 C 383.657 187.384,384.202 187.622,383.972 188.007 C 383.898 188.129,383.999 188.099,384.196 187.939 C 385.957 186.508,388.241 183.329,387.902 182.781 C 387.833 182.669,387.862 182.631,387.967 182.696 C 388.224 182.855,388.640 181.655,388.700 180.579 L 388.750 179.707 388.048 179.817 C 387.396 179.919,386.200 179.920,383.193 179.821 C 382.527 179.799,382.022 179.847,382.072 179.928 M65.086 180.640 C 65.044 180.997,65.082 181.334,65.171 181.389 C 65.260 181.444,65.286 181.564,65.229 181.655 C 65.173 181.747,65.255 181.951,65.413 182.109 C 65.571 182.267,65.659 182.436,65.610 182.486 C 65.560 182.535,65.697 182.736,65.913 182.932 C 66.130 183.128,66.308 183.385,66.310 183.503 C 66.316 183.971,69.375 187.249,69.792 187.234 C 70.021 187.226,70.202 187.271,70.196 187.332 C 70.149 187.778,70.274 188.106,70.527 188.203 C 70.757 188.291,70.798 188.213,70.708 187.856 L 70.593 187.396 78.031 187.402 C 82.121 187.406,85.571 187.346,85.697 187.268 C 85.822 187.191,85.924 187.228,85.924 187.351 C 85.924 187.510,86.407 187.538,87.608 187.449 C 88.855 187.357,89.373 187.391,89.607 187.581 C 89.781 187.722,89.864 187.739,89.793 187.619 C 89.700 187.464,90.274 187.401,91.766 187.402 C 92.923 187.402,94.090 187.380,94.360 187.352 C 94.630 187.325,95.400 187.351,96.072 187.411 C 96.767 187.473,97.344 187.439,97.410 187.332 C 97.474 187.229,97.623 187.204,97.742 187.278 C 97.861 187.351,98.826 187.428,99.886 187.448 L 101.815 187.484 101.815 185.840 C 101.815 184.701,101.739 184.170,101.569 184.111 C 101.435 184.064,96.778 183.989,91.221 183.943 C 85.665 183.898,80.809 183.805,80.432 183.736 C 80.054 183.667,79.613 183.588,79.451 183.560 C 79.289 183.533,79.068 183.455,78.960 183.388 C 78.852 183.321,78.455 183.216,78.077 183.155 C 77.387 183.044,76.147 182.483,75.616 182.043 C 75.459 181.912,75.331 181.864,75.331 181.936 C 75.331 182.007,75.089 181.842,74.794 181.568 C 74.498 181.293,74.189 181.058,74.107 181.045 C 74.025 181.031,73.870 181.009,73.762 180.996 C 73.654 180.982,73.258 180.726,72.882 180.426 L 72.199 179.881 68.680 179.936 L 65.162 179.990 65.086 180.640 M156.694 182.192 C 157.045 182.235,157.619 182.235,157.970 182.192 C 158.320 182.148,158.033 182.113,157.332 182.113 C 156.631 182.113,156.344 182.148,156.694 182.192 M159.049 182.188 C 159.291 182.235,159.689 182.235,159.931 182.188 C 160.174 182.142,159.975 182.103,159.490 182.103 C 159.004 182.103,158.806 182.142,159.049 182.188 M206.915 186.936 C 206.780 186.980,206.529 187.177,206.356 187.374 C 206.183 187.571,205.972 187.667,205.888 187.588 C 205.803 187.509,205.770 187.562,205.814 187.705 C 205.859 187.848,205.957 187.950,206.033 187.933 C 206.698 187.779,206.964 187.675,206.964 187.569 C 206.964 187.480,232.844 187.455,239.676 187.538 C 239.956 187.541,240.125 187.669,240.137 187.886 C 240.150 188.109,240.208 188.058,240.304 187.739 C 240.385 187.469,240.391 187.180,240.318 187.096 C 240.185 186.943,207.377 186.786,206.915 186.936 M48.574 188.050 C 48.501 188.241,48.545 188.330,48.688 188.283 C 48.981 188.185,49.143 187.739,48.885 187.739 C 48.779 187.739,48.640 187.879,48.574 188.050 M202.387 188.066 C 202.163 188.290,202.243 188.720,202.509 188.720 C 202.647 188.720,202.774 188.543,202.791 188.328 C 202.820 187.937,202.636 187.817,202.387 188.066 M383.325 188.230 C 383.325 188.391,383.413 188.524,383.521 188.524 C 383.629 188.524,383.718 188.391,383.718 188.230 C 383.718 188.068,383.629 187.935,383.521 187.935 C 383.413 187.935,383.325 188.068,383.325 188.230 M47.474 188.818 C 47.474 188.993,47.386 189.081,47.278 189.014 C 47.170 188.948,47.082 188.977,47.082 189.079 C 47.082 189.181,46.972 189.253,46.837 189.238 C 46.486 189.199,44.335 190.134,44.335 190.325 C 44.335 190.553,44.877 190.524,45.022 190.289 C 45.089 190.181,45.291 190.093,45.472 190.093 C 46.349 190.093,48.126 188.904,47.670 188.622 C 47.563 188.555,47.474 188.643,47.474 188.818 M115.939 188.720 C 115.939 188.828,116.072 188.916,116.233 188.916 C 116.395 188.916,116.528 188.993,116.528 189.087 C 116.528 189.299,118.895 190.341,119.043 190.194 C 119.183 190.053,118.811 189.687,118.466 189.626 C 117.879 189.523,117.312 189.274,117.312 189.118 C 117.312 189.028,117.034 188.858,116.695 188.739 C 115.942 188.477,115.939 188.477,115.939 188.720 M190.164 188.818 C 190.102 188.980,189.926 189.112,189.774 189.112 C 189.338 189.112,187.908 190.086,188.037 190.295 C 188.153 190.483,190.328 189.217,190.453 188.890 C 190.489 188.795,190.613 188.776,190.729 188.847 C 190.853 188.924,190.881 188.884,190.799 188.750 C 190.604 188.435,190.299 188.468,190.164 188.818 M287.148 188.641 C 286.941 188.848,287.231 189.309,287.564 189.303 C 287.847 189.297,287.844 189.272,287.539 189.094 C 287.348 188.983,287.243 188.809,287.305 188.708 C 287.432 188.503,287.330 188.459,287.148 188.641 M201.387 189.028 C 200.983 189.432,200.998 189.505,201.483 189.505 C 201.705 189.505,201.832 189.416,201.766 189.308 C 201.699 189.201,201.738 189.112,201.852 189.112 C 201.966 189.112,202.060 189.024,202.060 188.916 C 202.060 188.625,201.737 188.678,201.387 189.028 M20.674 189.142 C 20.724 189.399,20.840 189.471,22.181 190.079 C 23.249 190.564,23.345 190.573,23.345 190.191 C 23.345 190.029,23.173 189.897,22.964 189.897 C 22.754 189.897,22.271 189.713,21.891 189.489 C 21.511 189.265,21.116 189.133,21.014 189.196 C 20.912 189.259,20.783 189.220,20.728 189.109 C 20.673 188.997,20.648 189.013,20.674 189.142 M72.192 189.175 C 72.192 189.335,72.435 189.565,72.732 189.685 C 73.028 189.805,73.554 190.033,73.899 190.191 C 74.286 190.368,74.573 190.406,74.645 190.288 C 74.710 190.183,74.251 189.858,73.625 189.566 C 72.999 189.273,72.420 189.000,72.339 188.959 C 72.258 188.917,72.192 189.015,72.192 189.175 M342.068 189.042 C 341.912 189.198,342.089 189.505,342.336 189.505 C 342.438 189.505,342.521 189.372,342.521 189.210 C 342.521 188.907,342.289 188.821,342.068 189.042 M381.952 189.287 C 381.952 189.420,381.877 189.482,381.785 189.425 C 381.694 189.368,381.438 189.490,381.218 189.696 C 380.997 189.901,380.763 190.016,380.698 189.951 C 380.632 189.885,380.579 189.935,380.579 190.060 C 380.579 190.374,380.885 190.348,381.228 190.004 C 381.385 189.848,381.555 189.762,381.606 189.813 C 381.658 189.864,381.813 189.770,381.952 189.603 C 382.091 189.436,382.147 189.242,382.078 189.173 C 382.009 189.104,381.952 189.155,381.952 189.287 M202.648 190.093 C 202.382 190.294,202.231 190.526,202.313 190.608 C 202.396 190.691,202.654 190.567,202.888 190.333 C 203.438 189.783,203.275 189.620,202.648 190.093 M340.564 189.804 C 340.561 189.915,340.802 190.272,341.099 190.596 C 341.395 190.921,341.654 191.270,341.672 191.371 C 341.691 191.472,341.810 191.589,341.937 191.631 C 342.107 191.688,342.112 191.613,341.956 191.342 C 341.606 190.734,340.570 189.589,340.564 189.804 M245.297 190.047 C 245.178 190.126,245.079 190.324,245.075 190.486 C 245.072 190.647,245.003 190.956,244.923 191.172 L 244.778 191.564 245.070 191.172 C 245.347 190.799,245.707 189.894,245.575 189.900 C 245.541 189.902,245.416 189.968,245.297 190.047 M287.913 190.976 C 287.975 191.138,288.160 191.270,288.324 191.270 C 288.566 191.270,288.575 191.216,288.377 190.976 C 288.242 190.814,288.058 190.682,287.966 190.682 C 287.875 190.682,287.851 190.814,287.913 190.976 M28.148 191.471 C 28.100 191.550,28.566 191.658,29.184 191.712 C 30.231 191.803,30.589 191.766,30.391 191.590 C 30.221 191.439,28.234 191.333,28.148 191.471 M38.396 191.415 C 37.881 191.455,37.499 191.552,37.547 191.629 C 37.687 191.856,39.506 191.732,39.587 191.490 C 39.627 191.369,39.586 191.286,39.496 191.306 C 39.407 191.325,38.912 191.374,38.396 191.415 M124.512 191.395 C 124.219 191.688,124.414 191.766,125.454 191.771 C 126.047 191.774,126.533 191.707,126.533 191.622 C 126.533 191.536,126.231 191.466,125.862 191.466 C 125.493 191.466,125.069 191.420,124.920 191.362 C 124.771 191.305,124.587 191.320,124.512 191.395 M80.235 191.619 C 80.235 191.897,80.813 191.991,81.609 191.843 L 82.295 191.714 81.576 191.688 C 81.180 191.674,80.716 191.609,80.546 191.544 C 80.375 191.478,80.235 191.512,80.235 191.619 M288.377 192.031 C 288.377 192.126,288.502 192.307,288.655 192.434 C 288.884 192.624,288.915 192.593,288.829 192.262 C 288.726 191.868,288.377 191.689,288.377 192.031 " stroke="none" fill="#83d3fb" fill-rule="evenodd"></path><path id="path4" d="M171.031 3.090 C 187.035 3.117,213.166 3.117,229.099 3.090 C 245.032 3.062,231.937 3.039,200.000 3.039 C 168.063 3.039,155.027 3.062,171.031 3.090 M141.964 72.641 C 141.893 75.469,141.853 87.273,141.874 98.872 C 141.913 119.884,141.913 119.913,142.040 106.915 C 142.182 92.298,142.133 93.646,142.512 93.960 C 142.670 94.091,142.910 94.128,143.048 94.043 C 143.369 93.845,146.391 93.797,147.463 93.973 C 147.979 94.059,148.367 94.028,148.506 93.891 C 148.668 93.731,148.793 93.763,148.975 94.010 C 149.165 94.266,149.279 94.292,149.453 94.118 C 149.627 93.944,149.681 93.956,149.681 94.168 C 149.681 94.341,149.799 94.279,149.990 94.006 C 150.510 93.264,150.520 68.963,150.000 68.269 C 149.770 67.962,149.678 67.911,149.753 68.132 C 149.819 68.326,149.793 68.436,149.696 68.376 C 149.598 68.316,149.468 68.377,149.406 68.513 C 149.343 68.648,149.342 68.561,149.402 68.318 C 149.529 67.805,149.382 67.755,148.967 68.171 C 148.641 68.496,147.821 68.580,148.014 68.269 C 148.162 68.029,148.162 68.029,147.375 68.255 C 146.878 68.398,146.671 68.369,146.427 68.125 C 146.228 67.926,146.068 67.886,145.985 68.015 C 145.781 68.335,144.385 68.436,144.385 68.131 C 144.385 67.991,144.296 67.876,144.188 67.876 C 144.080 67.876,143.992 67.965,143.992 68.073 C 143.992 68.354,143.458 68.315,143.322 68.024 C 143.230 67.827,143.185 67.827,143.093 68.024 C 142.935 68.362,142.423 68.333,142.423 67.986 C 142.423 67.831,142.349 67.658,142.258 67.601 C 142.167 67.545,142.035 69.813,141.964 72.641 M225.118 67.748 C 224.919 67.894,224.839 68.063,224.939 68.125 C 225.039 68.187,225.340 68.070,225.606 67.865 C 226.176 67.427,225.710 67.315,225.118 67.748 M221.089 68.059 C 221.089 68.159,220.890 68.280,220.647 68.326 C 220.405 68.373,220.597 68.397,221.075 68.380 C 221.554 68.363,221.980 68.242,222.024 68.113 C 222.128 67.799,221.738 67.807,221.611 68.122 C 221.532 68.318,221.509 68.318,221.497 68.122 C 221.479 67.841,221.089 67.781,221.089 68.059 M222.266 68.073 C 222.266 68.180,222.391 68.269,222.544 68.269 C 222.697 68.269,222.984 68.330,223.182 68.405 C 223.518 68.532,223.520 68.520,223.212 68.209 C 222.851 67.845,222.266 67.761,222.266 68.073 M249.743 68.514 C 249.523 69.032,249.466 71.763,249.435 83.080 C 249.415 90.741,249.432 96.324,249.474 95.488 C 249.558 93.823,249.447 93.937,251.045 93.869 C 251.636 93.843,251.903 93.921,251.988 94.140 C 252.090 94.408,252.129 94.410,252.291 94.158 C 252.454 93.905,252.500 93.905,252.670 94.164 C 252.835 94.416,252.863 94.409,252.866 94.115 C 252.870 93.718,253.572 93.637,253.711 94.017 C 253.783 94.213,253.853 94.213,254.061 94.017 C 254.372 93.723,255.737 93.689,255.912 93.971 C 255.980 94.080,256.139 94.104,256.267 94.023 C 256.457 93.902,256.739 93.870,257.607 93.870 C 257.624 93.870,257.697 99.740,257.771 106.915 C 257.876 117.085,257.898 114.405,257.868 94.752 C 257.847 80.888,257.780 69.367,257.719 69.152 C 257.657 68.936,257.601 68.634,257.592 68.481 C 257.584 68.328,257.518 68.263,257.446 68.335 C 257.373 68.407,257.130 68.345,256.904 68.197 C 256.557 67.970,256.455 67.970,256.243 68.197 C 256.037 68.417,256.055 68.468,256.343 68.480 C 256.536 68.489,256.599 68.536,256.481 68.584 C 256.364 68.633,256.055 68.587,255.795 68.483 C 255.534 68.379,255.432 68.288,255.566 68.281 C 255.970 68.261,255.844 67.876,255.434 67.876 C 255.226 67.876,255.015 68.031,254.966 68.220 C 254.881 68.547,254.875 68.547,254.854 68.220 C 254.830 67.865,253.850 67.701,253.850 68.052 C 253.850 68.148,253.722 68.276,253.566 68.336 C 253.376 68.409,253.318 68.351,253.390 68.161 C 253.542 67.767,253.261 67.804,252.946 68.220 C 252.698 68.547,252.685 68.547,252.679 68.220 C 252.672 67.834,252.086 67.738,252.081 68.122 C 252.079 68.286,252.014 68.269,251.885 68.073 C 251.713 67.811,251.671 67.811,251.499 68.073 C 251.370 68.269,251.305 68.286,251.303 68.122 C 251.295 67.531,250.023 67.851,249.743 68.514 M176.034 84.938 C 174.948 85.484,174.345 86.019,173.138 87.507 C 171.691 89.289,171.605 94.728,173.035 93.963 C 173.276 93.834,173.522 93.808,173.590 93.904 C 173.658 93.999,173.933 94.051,174.203 94.019 C 175.011 93.922,177.004 93.923,177.678 94.020 C 178.041 94.072,178.343 94.018,178.391 93.892 C 178.440 93.761,178.602 93.832,178.791 94.066 C 179.049 94.385,179.086 94.394,178.989 94.115 C 178.922 93.923,178.965 93.771,179.086 93.771 C 179.206 93.771,179.304 93.866,179.304 93.982 C 179.304 94.097,179.442 94.053,179.612 93.884 C 180.012 93.483,180.024 93.485,180.588 94.094 C 180.915 94.448,181.069 94.519,181.069 94.319 C 181.069 94.084,181.344 94.029,182.442 94.046 C 183.198 94.057,183.816 93.994,183.816 93.907 C 183.816 93.820,183.923 93.815,184.055 93.896 C 184.515 94.180,185.997 94.094,186.169 93.774 C 186.569 93.025,186.290 89.403,185.745 88.279 C 184.038 84.759,179.497 83.197,176.034 84.938 M31.143 139.823 C 32.680 139.856,35.196 139.856,36.734 139.823 C 38.271 139.790,37.013 139.763,33.938 139.763 C 30.863 139.763,29.605 139.790,31.143 139.823 M130.015 139.823 C 132.955 139.854,137.766 139.854,140.706 139.823 C 143.646 139.793,141.241 139.768,135.360 139.768 C 129.480 139.768,127.075 139.793,130.015 139.823 M202.707 139.823 C 203.656 139.859,205.157 139.858,206.042 139.822 C 206.927 139.786,206.150 139.756,204.316 139.757 C 202.482 139.757,201.758 139.786,202.707 139.823 M389.208 156.989 C 389.204 160.291,389.458 160.025,386.360 159.966 C 383.199 159.907,383.380 160.005,383.209 158.261 C 383.132 157.483,383.016 156.996,382.952 157.180 C 382.735 157.800,382.706 170.751,382.921 171.064 C 383.069 171.280,383.124 171.290,383.126 171.102 C 383.128 170.960,383.223 170.903,383.338 170.974 C 383.662 171.175,388.808 171.152,389.010 170.950 C 389.213 170.746,389.538 154.782,389.339 154.782 C 389.268 154.782,389.209 155.775,389.208 156.989 M280.796 157.057 C 280.780 157.316,280.846 157.528,280.943 157.528 C 281.155 157.528,281.179 156.804,280.971 156.676 C 280.890 156.626,280.811 156.797,280.796 157.057 M190.044 157.789 C 189.963 157.987,189.909 161.342,189.924 165.244 C 189.938 169.147,189.989 172.141,190.036 171.898 C 190.168 171.207,190.600 171.104,193.330 171.113 C 194.733 171.118,196.079 171.059,196.322 170.982 L 196.763 170.842 196.763 165.565 C 196.763 159.308,197.162 159.934,193.191 159.965 L 190.305 159.987 190.248 158.709 C 190.212 157.904,190.137 157.563,190.044 157.789 M280.925 157.872 C 280.934 158.304,281.304 158.598,281.542 158.360 C 281.736 158.166,281.707 158.116,281.403 158.114 C 281.084 158.111,281.069 158.079,281.314 157.921 C 281.566 157.758,281.559 157.730,281.265 157.727 C 281.077 157.726,280.923 157.791,280.925 157.872 M10.616 165.160 C 10.600 169.225,10.665 171.983,10.786 172.267 C 10.953 172.663,10.979 172.674,10.961 172.339 C 10.950 172.124,10.951 171.832,10.963 171.692 C 10.987 171.422,12.122 170.932,12.457 171.046 C 12.565 171.083,13.535 171.108,14.612 171.103 C 15.689 171.097,16.675 171.179,16.802 171.284 C 16.952 171.409,17.074 171.408,17.151 171.284 C 17.216 171.178,17.199 171.048,17.113 170.995 C 16.903 170.864,16.942 160.275,17.155 159.810 C 17.307 159.478,17.281 159.467,16.866 159.689 C 16.572 159.846,15.445 159.942,13.697 159.957 L 10.986 159.980 10.986 159.354 C 10.986 159.010,10.909 158.681,10.815 158.623 C 10.719 158.564,10.632 161.444,10.616 165.160 M274.455 158.578 C 274.451 158.669,274.576 159.022,274.732 159.362 C 274.889 159.702,275.191 160.510,275.405 161.157 C 275.618 161.805,276.141 163.085,276.566 164.002 C 276.991 164.919,277.482 166.045,277.658 166.503 L 277.976 167.337 271.023 167.337 L 264.069 167.337 263.791 167.974 C 262.229 171.548,262.159 171.772,262.771 171.264 C 262.936 171.128,263.070 171.082,263.070 171.162 C 263.070 171.243,263.189 171.210,263.333 171.090 C 263.478 170.970,263.649 170.924,263.713 170.988 C 263.777 171.052,265.137 171.090,266.736 171.074 C 268.334 171.057,269.863 171.062,270.132 171.083 C 270.807 171.137,276.350 171.120,278.296 171.058 C 279.171 171.030,279.965 171.047,280.061 171.096 C 280.353 171.244,286.506 171.152,286.759 170.996 C 286.913 170.901,286.935 170.733,286.823 170.516 C 286.663 170.205,285.975 168.608,284.442 164.983 C 283.366 162.441,282.885 161.363,282.688 161.059 C 282.339 160.521,281.896 159.431,281.989 159.338 C 282.039 159.288,281.948 159.115,281.786 158.953 C 281.388 158.554,281.261 158.736,281.500 159.365 C 281.730 159.970,282.046 159.910,278.384 159.965 C 275.560 160.007,275.721 160.055,274.837 158.901 C 274.630 158.632,274.458 158.486,274.455 158.578 M346.124 164.623 C 346.138 168.040,346.217 170.903,346.299 170.985 C 346.595 171.280,352.330 171.148,352.639 170.838 C 352.878 170.600,352.915 169.617,352.868 164.777 C 352.834 161.348,352.744 159.179,352.646 159.441 C 352.555 159.684,352.380 159.890,352.258 159.900 C 350.913 160.005,350.016 159.988,349.742 159.851 C 349.560 159.760,349.370 159.752,349.319 159.833 C 349.227 159.982,347.184 160.004,346.641 159.862 C 346.479 159.819,346.290 159.475,346.222 159.098 C 346.153 158.720,346.109 161.207,346.124 164.623 M265.747 159.117 C 265.578 159.357,265.486 159.628,265.542 159.718 C 265.598 159.808,265.131 159.887,264.504 159.893 C 263.877 159.900,262.702 159.937,261.893 159.976 C 259.855 160.075,259.186 159.943,259.094 159.421 C 259.021 159.009,259.016 159.008,258.852 159.392 C 258.760 159.608,258.613 159.833,258.526 159.892 C 258.375 159.995,255.722 165.903,254.699 168.416 C 254.436 169.063,254.143 169.769,254.050 169.985 C 253.811 170.539,253.610 171.602,253.798 171.324 C 253.909 171.159,254.971 171.104,257.523 171.129 C 261.044 171.164,261.096 171.159,261.330 170.723 C 261.460 170.479,261.508 170.221,261.435 170.149 C 261.363 170.076,261.427 169.878,261.578 169.707 C 261.729 169.536,262.270 168.382,262.779 167.141 C 266.373 158.397,266.509 158.029,265.747 159.117 M56.781 159.369 C 56.637 159.942,56.793 159.914,53.735 159.923 C 51.451 159.930,50.809 159.808,50.809 159.367 C 50.809 159.206,50.720 159.129,50.611 159.197 C 50.503 159.264,50.456 159.552,50.508 159.836 C 50.862 161.793,51.036 165.447,50.890 167.868 C 50.678 171.385,50.677 171.375,51.016 171.273 C 51.564 171.107,56.010 171.112,56.448 171.278 C 56.746 171.392,56.891 171.609,56.891 171.942 C 56.891 172.215,56.975 172.437,57.077 172.437 C 57.180 172.437,57.231 172.174,57.190 171.851 C 57.149 171.529,57.192 171.218,57.286 171.161 C 57.502 171.027,57.545 160.731,57.329 160.598 C 57.241 160.543,57.146 160.164,57.119 159.756 C 57.057 158.830,56.947 158.705,56.781 159.369 M312.310 159.083 C 312.310 159.182,312.531 159.526,312.800 159.847 C 313.070 160.167,313.291 160.527,313.291 160.646 C 313.291 160.766,313.379 160.863,313.487 160.863 C 313.595 160.863,313.683 160.979,313.683 161.120 C 313.683 161.262,313.860 161.567,314.076 161.799 C 314.291 162.030,314.468 162.268,314.468 162.326 C 314.468 162.414,315.541 163.982,316.085 164.689 C 317.525 166.559,318.199 167.485,318.683 168.262 C 319.616 169.755,321.059 171.260,321.314 171.005 C 321.433 170.887,321.530 170.873,321.530 170.976 C 321.530 171.086,322.516 171.144,323.933 171.119 C 325.255 171.095,326.540 171.073,326.789 171.070 C 327.099 171.066,327.196 170.987,327.095 170.819 C 326.995 170.652,327.054 170.660,327.280 170.843 C 328.192 171.583,327.548 170.515,324.514 166.258 C 324.206 165.826,323.326 164.546,322.557 163.413 C 321.788 162.281,320.847 161.000,320.466 160.569 C 320.084 160.137,319.770 159.685,319.768 159.563 C 319.766 159.441,319.623 159.225,319.451 159.082 C 319.174 158.852,319.145 158.889,319.206 159.401 L 319.274 159.980 316.626 159.989 C 313.921 159.997,313.067 159.821,312.830 159.203 C 312.705 158.877,312.310 158.786,312.310 159.083 M336.369 159.641 C 336.302 160.043,336.247 162.687,336.245 165.515 C 336.243 171.623,335.899 171.054,339.620 171.109 C 341.150 171.132,342.286 171.232,342.371 171.351 C 342.592 171.663,342.546 160.224,342.325 159.882 C 342.220 159.720,342.133 159.677,342.131 159.785 C 342.130 159.906,341.283 159.971,339.922 159.953 C 336.706 159.912,336.832 159.930,336.832 159.502 C 336.832 158.799,336.491 158.901,336.369 159.641 M157.958 159.634 C 157.725 159.957,157.398 159.988,154.574 159.953 L 151.447 159.914 151.447 165.380 C 151.447 169.345,151.510 170.884,151.677 170.987 C 151.803 171.065,153.194 171.140,154.768 171.154 C 156.342 171.167,157.740 171.247,157.874 171.330 C 158.292 171.588,158.320 171.142,158.267 165.120 C 158.223 160.241,158.172 159.336,157.958 159.634 M62.776 159.871 C 62.776 160.093,62.685 160.275,62.574 160.275 C 62.441 160.275,62.379 162.166,62.390 165.880 C 62.402 170.190,62.460 171.443,62.640 171.302 C 62.769 171.201,63.382 171.120,64.002 171.124 C 64.622 171.127,65.183 171.077,65.247 171.012 C 65.312 170.948,65.466 170.931,65.591 170.974 C 65.715 171.017,66.348 171.091,66.998 171.137 C 68.850 171.270,68.885 171.210,68.616 168.349 C 68.402 166.074,68.585 162.060,68.988 160.196 C 69.082 159.761,69.051 159.665,68.857 159.785 C 68.546 159.976,62.974 160.038,63.091 159.848 C 63.137 159.774,63.085 159.658,62.975 159.590 C 62.865 159.522,62.776 159.647,62.776 159.871 M112.997 159.767 C 112.997 159.995,112.535 160.033,110.397 159.983 C 108.968 159.949,107.511 160.007,107.160 160.113 L 106.523 160.305 106.523 165.750 C 106.523 170.459,106.563 171.195,106.817 171.195 C 106.979 171.195,107.111 171.127,107.111 171.045 C 107.111 170.905,107.630 170.944,108.583 171.155 C 108.798 171.203,109.302 171.168,109.701 171.078 C 110.100 170.988,110.473 170.960,110.529 171.016 C 110.585 171.072,111.185 171.128,111.863 171.140 C 112.678 171.155,113.080 171.239,113.052 171.389 C 113.028 171.514,113.139 171.665,113.297 171.726 C 113.584 171.836,113.692 171.629,113.466 171.403 C 113.400 171.337,113.324 170.903,113.296 170.438 C 113.269 169.973,113.179 168.578,113.097 167.337 C 112.961 165.301,113.206 160.859,113.510 159.833 C 113.576 159.609,113.505 159.490,113.304 159.490 C 113.135 159.490,112.997 159.615,112.997 159.767 M207.160 159.833 C 207.160 159.914,205.902 159.976,204.365 159.970 C 202.827 159.964,201.459 160.041,201.324 160.141 C 201.027 160.362,200.961 170.964,201.258 170.780 C 201.357 170.719,201.473 170.774,201.515 170.901 C 201.588 171.121,205.206 171.218,206.915 171.045 L 207.553 170.981 207.553 165.333 C 207.553 161.699,207.483 159.686,207.357 159.686 C 207.249 159.686,207.160 159.752,207.160 159.833 M300.589 160.033 L 300.147 160.106 300.150 165.732 C 300.152 168.948,300.225 171.244,300.322 171.092 C 300.415 170.946,300.541 170.908,300.602 171.007 C 300.664 171.107,301.933 171.174,303.422 171.156 L 306.130 171.123 306.183 165.601 L 306.235 160.078 305.692 160.048 C 304.423 159.976,300.995 159.966,300.589 160.033 " stroke="none" fill="#a9a3fb" fill-rule="evenodd"></path></g></svg>