<svg width="32" height="32" viewBox="0 0 43 44" fill="none" xmlns="http://www.w3.org/2000/svg" style="flex-shrink: 0;"><path d="M21.5 43.5742C33.3741 43.5742 43 33.9483 43 22.0742C43 10.2001 33.3741 0.574219 21.5 0.574219C9.6259 0.574219 0 10.2001 0 22.0742C0 33.9483 9.6259 43.5742 21.5 43.5742Z" fill="white"></path><g clip-path="url(#clip0)"><path d="M21.7349 5.09277L11.1582 22.6442L21.7349 17.8369V5.09277Z" fill="#8A92B2"></path><path d="M21.7349 17.8364L11.1582 22.6437L21.7349 28.8972V17.8364Z" fill="#62688F"></path><path d="M32.3189 22.6442L21.7402 5.09277V17.8369L32.3189 22.6442Z" fill="#62688F"></path><path d="M21.7402 28.8972L32.3189 22.6437L21.7402 17.8364V28.8972Z" fill="#454A75"></path><path d="M11.1582 24.6558L21.7349 39.5615V30.9054L11.1582 24.6558Z" fill="#8A92B2"></path><path d="M21.7402 30.9054V39.5615L32.3248 24.6558L21.7402 30.9054Z" fill="#62688F"></path></g><defs><clipPath id="clip0"><rect width="41.0455" height="41.0455" fill="white" transform="translate(0 0.574219)"></rect></clipPath></defs></svg>